<?xml version="1.0" encoding="utf-8"?>
<!-- Generator: Adobe Illustrator 23.0.1, SVG Export Plug-In . SVG Version: 6.00 Build 0)  -->
<svg version="1.1" id="Layer_1" xmlns="http://www.w3.org/2000/svg" xmlns:xlink="http://www.w3.org/1999/xlink" x="0px" y="0px"
	 viewBox="0 0 25 25" style="enable-background:new 0 0 25 25;" xml:space="preserve">
<style type="text/css">
	.st0{fill:#FFFFFF;}
</style>
<g>
	<path class="st0" d="M23.03,0.55H1.97c-0.65,0-1.17,0.52-1.17,1.17v21.06c0,0.65,0.52,1.17,1.17,1.17h21.06
		c0.65,0,1.17-0.52,1.17-1.17V1.72C24.2,1.07,23.68,0.55,23.03,0.55L23.03,0.55z M23.42,22.77c0,0.22-0.17,0.39-0.39,0.39H1.97
		c-0.22,0-0.39-0.17-0.39-0.39V4.45h21.84V22.77z M1.58,3.67V1.72c0-0.22,0.17-0.39,0.39-0.39h21.06c0.22,0,0.39,0.17,0.39,0.39
		v1.95H1.58z M1.58,3.67"/>
	<path class="st0" d="M2.48,2.22C2.4,2.29,2.36,2.39,2.36,2.5c0,0.05,0.01,0.1,0.03,0.15c0.02,0.05,0.05,0.09,0.08,0.13
		c0.15,0.15,0.4,0.15,0.55,0c0.15-0.15,0.15-0.4,0-0.55C2.87,2.07,2.63,2.07,2.48,2.22L2.48,2.22z M2.48,2.22"/>
	<path class="st0" d="M4.04,2.22C3.96,2.29,3.92,2.39,3.92,2.5c0,0.03,0,0.05,0.01,0.08c0,0.02,0.01,0.05,0.02,0.07
		c0.01,0.02,0.02,0.05,0.04,0.07C4,2.73,4.02,2.75,4.04,2.77c0.15,0.15,0.4,0.15,0.55,0l0.05-0.06c0.01-0.02,0.03-0.05,0.04-0.07
		C4.68,2.62,4.69,2.6,4.69,2.57C4.7,2.55,4.7,2.52,4.7,2.5c0-0.16-0.09-0.3-0.24-0.36C4.32,2.07,4.15,2.11,4.04,2.22L4.04,2.22z
		 M4.04,2.22"/>
	<path class="st0" d="M5.6,2.22c-0.15,0.15-0.15,0.4,0,0.55c0.15,0.15,0.4,0.15,0.55,0c0.15-0.15,0.15-0.4,0-0.55
		C5.99,2.07,5.75,2.07,5.6,2.22L5.6,2.22z M5.6,2.22"/>
	<path class="st0" d="M22.64,5.23H2.36v5.46h20.28V5.23z M21.86,9.9H3.14v-3.9h18.72V9.9z M21.86,9.9"/>
	<path class="st0" d="M9.38,11.46H2.36v10.92h7.02V11.46z M8.6,21.6H3.14v-9.36H8.6V21.6z M8.6,21.6"/>
	<path class="st0" d="M10.16,16.53h12.48v-5.07H10.16V16.53z M10.94,12.24h10.92v3.51H10.94V12.24z M10.94,12.24"/>
	<path class="st0" d="M10.16,22.38h12.48v-5.07H10.16V22.38z M10.94,18.09h10.92v3.51H10.94V18.09z M10.94,18.09"/>
</g>
</svg>
