<?xml version="1.0" encoding="utf-8"?>
<!-- Generator: Adobe Illustrator 23.0.1, SVG Export Plug-In . SVG Version: 6.00 Build 0)  -->
<svg version="1.1" id="Layer_1" xmlns="http://www.w3.org/2000/svg" xmlns:xlink="http://www.w3.org/1999/xlink" x="0px" y="0px"
	 viewBox="0 0 25 25" style="enable-background:new 0 0 25 25;" xml:space="preserve">
<style type="text/css">
	.st0{fill:#FFFFFF;}
</style>
<g>
	<path class="st0" d="M22.73,12.5h-8.33c-0.63,0-1.14,0.51-1.14,1.14v4.92c0,0.63,0.51,1.14,1.14,1.14h3.03v1.14h-1.52v0.76H12.5
		v-2.05c0-1.19-0.8-2.24-1.95-2.56l-2.21-0.6v-0.57c0.71-0.49,1.14-1.31,1.14-2.17v-0.38c0.21,0,0.38-0.17,0.38-0.38v-1.14
		c0-1.67-1.36-3.03-3.03-3.03H3.41c-0.42,0-0.76,0.34-0.76,0.76v1.89c0,0.86,0.58,1.61,1.41,1.83c0.03,0.01,0.07,0.01,0.1,0.02v0.42
		c0,0.87,0.42,1.68,1.14,2.17v0.57l-2.21,0.6c-1.15,0.32-1.95,1.36-1.95,2.56v3.95c0,0.21,0.17,0.38,0.38,0.38h21.97
		c0.21,0,0.38-0.17,0.38-0.38v-1.52c0-0.21-0.17-0.38-0.38-0.38h-2.27v-0.76H19.7V19.7h3.03c0.63,0,1.14-0.51,1.14-1.14v-4.92
		C23.86,13.01,23.35,12.5,22.73,12.5L22.73,12.5z M3.41,11.36V9.47h3.41c1.25,0,2.27,1.02,2.27,2.27v0.76H8.84
		c-0.35,0-0.65-0.24-0.73-0.57l-0.16-0.66c-0.04-0.14-0.15-0.25-0.29-0.28c-0.02-0.01-0.05-0.01-0.08-0.01
		c-0.12,0-0.23,0.06-0.3,0.15l-0.23,0.3c-0.14,0.18-0.29,0.34-0.47,0.48C6.11,12.3,5.53,12.5,4.92,12.5H4.55
		c-0.1,0-0.19-0.01-0.29-0.04C3.76,12.33,3.41,11.88,3.41,11.36L3.41,11.36z M4.92,13.64v-0.38c0.78,0,1.53-0.27,2.13-0.75
		c0.12-0.1,0.23-0.2,0.34-0.31c0.19,0.59,0.71,1,1.32,1.05v0.39c0,1.05-0.85,1.89-1.89,1.89S4.92,14.68,4.92,13.64L4.92,13.64z
		 M6.82,16.29c0.26,0,0.51-0.04,0.76-0.11v0.49c0,0.11,0.05,0.21,0.13,0.28l-0.89,0.74l-0.89-0.74c0.08-0.07,0.13-0.17,0.13-0.28
		v-0.49C6.31,16.25,6.56,16.29,6.82,16.29L6.82,16.29z M3.29,17.71l1.79-0.49l1.5,1.25c0.14,0.12,0.34,0.12,0.48,0l1.5-1.25
		l1.79,0.49c0.82,0.23,1.39,0.97,1.4,1.83v2.05h-1.14V19.7H9.85v1.89H3.79V19.7H3.03v1.89H1.89v-2.05
		C1.9,18.68,2.47,17.94,3.29,17.71L3.29,17.71z M23.11,22.35v0.76H1.89v-0.76H23.11z M18.18,20.83v-4.17h0.76v4.17H18.18z
		 M23.11,18.56c0,0.21-0.17,0.38-0.38,0.38H19.7v-2.65c0-0.21-0.17-0.38-0.38-0.38H17.8c-0.21,0-0.38,0.17-0.38,0.38v2.65h-3.03
		c-0.21,0-0.38-0.17-0.38-0.38v-4.92c0-0.21,0.17-0.38,0.38-0.38h8.33c0.21,0,0.38,0.17,0.38,0.38V18.56z M23.11,18.56"/>
	<path class="st0" d="M22.73,1.14h-6.82c-0.63,0-1.14,0.51-1.14,1.14v0.38h-0.38c-0.63,0-1.14,0.51-1.14,1.14v5.3
		c0,0.63,0.51,1.14,1.14,1.14h6.82c0.63,0,1.14-0.51,1.14-1.14V8.71h0.38c0.63,0,1.14-0.51,1.14-1.14v-5.3
		C23.86,1.65,23.35,1.14,22.73,1.14L22.73,1.14z M14.39,3.41h6.82c0.21,0,0.38,0.17,0.38,0.38v0.38h-7.58V3.79
		C14.02,3.58,14.18,3.41,14.39,3.41L14.39,3.41z M21.21,9.47h-6.82c-0.21,0-0.38-0.17-0.38-0.38V4.92h7.58v4.17
		C21.59,9.3,21.42,9.47,21.21,9.47L21.21,9.47z M23.11,7.58c0,0.21-0.17,0.38-0.38,0.38h-0.38V3.79c0-0.63-0.51-1.14-1.14-1.14
		h-5.68V2.27c0-0.21,0.17-0.38,0.38-0.38h6.82c0.21,0,0.38,0.17,0.38,0.38V7.58z M23.11,7.58"/>
	<rect x="17.42" y="6.44" class="st0" width="0.76" height="0.76"/>
	<rect x="18.94" y="6.44" class="st0" width="0.76" height="0.76"/>
	<rect x="15.91" y="6.44" class="st0" width="0.76" height="0.76"/>
	<rect x="3.41" y="2.65" class="st0" width="1.52" height="0.76"/>
	<rect x="5.68" y="2.65" class="st0" width="4.55" height="0.76"/>
	<rect x="3.79" y="5.68" class="st0" width="1.52" height="0.76"/>
	<rect x="6.06" y="5.68" class="st0" width="4.55" height="0.76"/>
	<rect x="4.17" y="4.17" class="st0" width="1.52" height="0.76"/>
	<rect x="6.44" y="4.17" class="st0" width="4.55" height="0.76"/>
</g>
</svg>
