<?xml version="1.0" encoding="utf-8"?>
<!-- Generator: Adobe Illustrator 23.0.1, SVG Export Plug-In . SVG Version: 6.00 Build 0)  -->
<svg version="1.1" id="Layer_1" xmlns="http://www.w3.org/2000/svg" xmlns:xlink="http://www.w3.org/1999/xlink" x="0px" y="0px"
	 viewBox="0 0 25 25" style="enable-background:new 0 0 25 25;" xml:space="preserve">
<style type="text/css">
	.st0{fill:#FFFFFF;}
</style>
<g>
	<path class="st0" d="M24.17,16.3c0.22,0,0.4-0.18,0.4-0.4v-3.16c0-0.22-0.18-0.4-0.4-0.4h-4.97l2.49-2.49
		c0.15-0.15,0.15-0.4,0-0.56l-2.16-2.16c-0.15-0.15-0.4-0.15-0.56,0c-0.62,0.62-1.62,0.62-2.24,0c-0.62-0.62-0.62-1.62,0-2.24
		c0.15-0.15,0.15-0.4,0-0.56l-1.76-1.76c-0.15-0.15-0.4-0.15-0.56,0l-9.76,9.76H1.25c-0.22,0-0.4,0.18-0.4,0.4v3.16
		c0,0.22,0.18,0.4,0.4,0.4c0.87,0,1.58,0.71,1.58,1.58s-0.71,1.58-1.58,1.58c-0.22,0-0.4,0.18-0.4,0.4v3.16c0,0.22,0.18,0.4,0.4,0.4
		h22.91c0.22,0,0.4-0.18,0.4-0.4v-3.16c0-0.22-0.18-0.4-0.4-0.4c-0.87,0-1.58-0.71-1.58-1.58S23.29,16.3,24.17,16.3z M14.68,3.42
		l1.23,1.23c-0.76,1.07-0.51,2.55,0.55,3.31c0.82,0.59,1.93,0.59,2.76,0l1.62,1.62l-2.77,2.77h-1.25l0.91-0.91
		c0.15-0.15,0.15-0.4,0-0.56l-4.35-4.35c-0.15-0.15-0.4-0.15-0.56,0l-5.81,5.81H5.76L14.68,3.42z M8.13,12.35l4.97-4.97l3.79,3.79
		l-1.19,1.19H8.13z M23.77,20.22v2.4h-3.16v-1.58h-0.79v1.58H5.6v-0.4H4.81v0.4H1.65v-2.4c1.29-0.22,2.16-1.44,1.94-2.73
		c-0.17-1-0.95-1.78-1.94-1.94v-2.4h3.16v1.19H5.6v-1.19h18.17v2.4c-1.29,0.22-2.16,1.44-1.94,2.73
		C21.99,19.27,22.77,20.05,23.77,20.22z"/>
	<rect x="19.82" y="13.93" class="st0" width="0.79" height="1.58"/>
	<rect x="19.82" y="16.3" class="st0" width="0.79" height="1.58"/>
	<rect x="19.82" y="18.67" class="st0" width="0.79" height="1.58"/>
	<rect x="4.81" y="15.11" class="st0" width="0.79" height="1.58"/>
	<rect x="4.81" y="17.48" class="st0" width="0.79" height="1.58"/>
	<rect x="4.81" y="19.85" class="st0" width="0.79" height="1.58"/>
	<path class="st0" d="M18.24,15.11c-0.44,0-0.79-0.35-0.79-0.79c0-0.22-0.18-0.4-0.4-0.4H8.36c-0.22,0-0.4,0.18-0.4,0.4
		c0,0.44-0.35,0.79-0.79,0.79c-0.22,0-0.4,0.18-0.4,0.4v4.74c0,0.22,0.18,0.4,0.4,0.4c0.44,0,0.79,0.35,0.79,0.79
		c0,0.22,0.18,0.4,0.4,0.4h8.69c0.22,0,0.4-0.18,0.4-0.4c0-0.44,0.35-0.79,0.79-0.79c0.22,0,0.4-0.18,0.4-0.4v-4.74
		C18.63,15.29,18.46,15.11,18.24,15.11z M17.84,19.9c-0.56,0.14-0.99,0.58-1.14,1.14h-8c-0.14-0.56-0.58-0.99-1.14-1.14v-4.05
		c0.56-0.14,0.99-0.58,1.14-1.14h8c0.14,0.56,0.58,0.99,1.14,1.14V19.9z"/>
</g>
</svg>
