<?xml version="1.0" encoding="utf-8"?>
<!-- Generator: Adobe Illustrator 23.0.1, SVG Export Plug-In . SVG Version: 6.00 Build 0)  -->
<svg version="1.1" id="Layer_1" xmlns="http://www.w3.org/2000/svg" xmlns:xlink="http://www.w3.org/1999/xlink" x="0px" y="0px"
	 viewBox="0 0 25 25" style="enable-background:new 0 0 25 25;" xml:space="preserve">
<style type="text/css">
	.st0{fill:#FFFFFF;}
</style>
<g>
	<path class="st0" d="M21.8,11.81L21.8,11.81c0.1-0.53,0-1.09-0.28-1.55h2.2c0.21,0,0.38-0.17,0.38-0.38V3.84
		c0.01-0.71-0.27-1.39-0.77-1.89c-0.5-0.5-1.18-0.77-1.89-0.75h-5.99c-0.1,0-0.2,0.04-0.27,0.11c-0.07,0.07-0.11,0.17-0.11,0.27v2.2
		c0,0.27,0.14,0.52,0.38,0.66c0.23,0.13,0.52,0.13,0.75,0c0.31-0.19,0.68-0.26,1.04-0.19C18.06,4.39,18.6,5.18,18.45,6
		c-0.05,0.25-0.15,0.48-0.31,0.68c-0.28,0.35-0.71,0.56-1.16,0.56l0,0c-0.27,0-0.53-0.07-0.75-0.2c-0.23-0.13-0.52-0.13-0.75,0
		c-0.24,0.14-0.38,0.39-0.38,0.66l-0.02,2.18c0,0.1,0.04,0.2,0.11,0.27c0.07,0.07,0.16,0.11,0.26,0.11h2.17
		c-0.63,1.08-0.25,2.47,0.83,3.09c0.35,0.2,0.74,0.3,1.14,0.3c0.16,0,0.33-0.02,0.49-0.05C20.95,13.4,21.63,12.7,21.8,11.81z
		 M18.63,12.56c-0.58-0.46-0.74-1.28-0.38-1.92c0.14-0.23,0.14-0.52,0-0.75c-0.14-0.24-0.39-0.38-0.67-0.38l0,0L15.83,9.5l0.02-1.83
		c0.34,0.2,0.72,0.31,1.11,0.32l0,0c1.25,0.03,2.29-0.95,2.32-2.2c0.03-1.13-0.78-2.11-1.9-2.29c-0.53-0.1-1.08,0-1.55,0.28
		l-0.01-1.82h5.64c1.04,0,1.89,0.84,1.89,1.89V9.5h-1.82c-0.27,0-0.52,0.14-0.66,0.38c-0.14,0.23-0.14,0.52,0,0.75
		c0.19,0.31,0.25,0.68,0.18,1.04c-0.15,0.82-0.94,1.36-1.76,1.21C19.05,12.83,18.82,12.73,18.63,12.56L18.63,12.56z"/>
	<path class="st0" d="M12.43,1.51c0-0.21-0.17-0.38-0.38-0.38s-0.38,0.17-0.38,0.38c-0.1,0.61-0.58,1.09-1.19,1.19
		c-0.21,0-0.38,0.17-0.38,0.38c0,0.21,0.17,0.38,0.38,0.38c0.61,0.1,1.09,0.58,1.19,1.19c0,0.21,0.17,0.38,0.38,0.38
		s0.38-0.17,0.38-0.38c0.1-0.61,0.58-1.09,1.19-1.19c0.21,0,0.38-0.17,0.38-0.38c0-0.21-0.17-0.38-0.38-0.38
		C13.01,2.6,12.53,2.12,12.43,1.51z M12.05,3.62c-0.15-0.21-0.33-0.39-0.54-0.54c0.21-0.15,0.39-0.33,0.54-0.54
		c0.15,0.21,0.33,0.39,0.54,0.54C12.38,3.23,12.2,3.41,12.05,3.62z"/>
	<path class="st0" d="M18.47,14.78L18.47,14.78h-2.2c-0.27,0-0.52,0.14-0.66,0.38c-0.13,0.23-0.13,0.52,0,0.75
		c0.19,0.31,0.26,0.68,0.19,1.04c-0.15,0.82-0.94,1.36-1.76,1.21c-0.25-0.05-0.48-0.15-0.68-0.31c-0.35-0.28-0.56-0.71-0.56-1.16
		c0-0.27,0.07-0.53,0.2-0.75c0.14-0.23,0.14-0.52,0-0.75c-0.14-0.24-0.39-0.38-0.66-0.38l0,0l-1.8-0.02v-1.82
		c0.34,0.2,0.73,0.31,1.13,0.31l0,0c1.25,0.01,2.27-1,2.28-2.25c0.01-1.1-0.78-2.04-1.85-2.24c-0.53-0.1-1.08,0-1.55,0.28l-0.01-2.2
		c0-0.21-0.17-0.38-0.38-0.38H4.13c-1.46,0-2.64,1.18-2.64,2.64v6.02c0,0.05,0.01,0.1,0.03,0.15v5.94c0,1.46,1.18,2.64,2.64,2.64
		l0,0h6c0.06,0,0.12-0.02,0.17-0.05h5.88c1.46,0,2.64-1.18,2.64-2.64v-6.02c0-0.1-0.04-0.2-0.11-0.27
		C18.67,14.82,18.57,14.78,18.47,14.78z M2.24,9.12c0-1.04,0.84-1.89,1.89-1.89h5.66v1.82c0,0.27,0.14,0.52,0.38,0.66
		c0.23,0.13,0.52,0.13,0.75,0c0.31-0.19,0.68-0.26,1.04-0.19c0.82,0.15,1.36,0.94,1.21,1.76c-0.05,0.25-0.15,0.48-0.31,0.68
		c-0.28,0.35-0.71,0.56-1.16,0.56l0,0c-0.27,0-0.53-0.07-0.75-0.2c-0.23-0.13-0.52-0.13-0.75,0c-0.24,0.14-0.38,0.39-0.38,0.67v1.77
		H8.03c0.44-0.81,0.35-1.8-0.22-2.51c-0.11-0.14-0.24-0.27-0.38-0.38c-0.97-0.79-2.4-0.63-3.18,0.34c-0.24,0.29-0.4,0.64-0.47,1.01
		c-0.1,0.53,0,1.08,0.28,1.55H2.24V9.12z M4.16,23.08L4.16,23.08c-1.04,0-1.89-0.84-1.89-1.89v-5.66h1.82
		c0.27,0,0.52-0.14,0.66-0.38c0.14-0.23,0.14-0.52,0-0.75c-0.41-0.73-0.16-1.65,0.57-2.06c0.63-0.36,1.43-0.22,1.9,0.34
		c0.2,0.26,0.31,0.59,0.31,0.92c0,0.27-0.07,0.53-0.2,0.75c-0.13,0.23-0.13,0.52,0,0.75c0.04,0.06,0.08,0.12,0.13,0.17
		c0.14,0.17,0.35,0.26,0.57,0.26l0,0l1.77,0v1.78c-0.35-0.19-0.74-0.3-1.13-0.3c-1.25,0-2.26,1.01-2.26,2.26
		c0,0.18,0.02,0.35,0.05,0.53c0.18,0.9,0.89,1.59,1.79,1.77c0.53,0.1,1.08,0,1.55-0.28l0.01,1.79H4.16z M18.09,21.17
		c0,1.04-0.84,1.89-1.89,1.89h-5.66v-1.82c0-0.27-0.14-0.52-0.38-0.66c-0.23-0.14-0.52-0.14-0.75,0c-0.31,0.19-0.68,0.25-1.04,0.18
		c-0.59-0.11-1.06-0.55-1.2-1.13c-0.02-0.1-0.03-0.21-0.03-0.32c0.02-0.82,0.69-1.47,1.51-1.47l0,0c0.26,0,0.53,0.07,0.75,0.2
		c0.23,0.14,0.52,0.14,0.75,0c0.24-0.14,0.38-0.39,0.38-0.66v-1.84l1.82,0.02c-0.63,1.08-0.26,2.47,0.83,3.09s2.47,0.26,3.09-0.83
		c0.13-0.23,0.22-0.48,0.27-0.74c0.1-0.53,0-1.08-0.28-1.55l1.81,0V21.17z"/>
	<path class="st0" d="M19.6,16.67v0.75c1.46,0,2.64-1.18,2.64-2.64h-0.75C21.49,15.82,20.64,16.67,19.6,16.67z"/>
	<path class="st0" d="M19.6,18.56v0.75c2.5,0,4.53-2.03,4.53-4.53h-0.75C23.37,16.87,21.68,18.56,19.6,18.56z"/>
</g>
</svg>
