<?xml version="1.0" encoding="utf-8"?>
<!-- Generator: Adobe Illustrator 23.0.1, SVG Export Plug-In . SVG Version: 6.00 Build 0)  -->
<svg version="1.1" id="Layer_1" xmlns="http://www.w3.org/2000/svg" xmlns:xlink="http://www.w3.org/1999/xlink" x="0px" y="0px"
	 viewBox="0 0 25 25" style="enable-background:new 0 0 25 25;" xml:space="preserve">
<style type="text/css">
	.st0{fill:#FFFFFF;}
</style>
<g>
	<rect x="2.41" y="22.29" class="st0" width="0.76" height="0.76"/>
	<rect x="3.94" y="22.29" class="st0" width="0.76" height="0.76"/>
	<rect x="5.46" y="22.29" class="st0" width="0.76" height="0.76"/>
	<rect x="18.42" y="22.29" class="st0" width="3.05" height="0.76"/>
	<path class="st0" d="M22.99,20.78V8.31c0-1.04-0.85-1.89-1.91-1.89h-1.14c0-2.92-2.39-5.29-5.33-5.29S9.27,3.5,9.27,6.42H2.79
		c-1.05,0-1.91,0.85-1.91,1.89v12.47H0.12v1.89c0,1.04,0.85,1.89,1.91,1.89h19.81c1.05,0,1.91-0.85,1.91-1.89v-1.89H22.99z
		 M21.08,7.18c0.63,0,1.14,0.51,1.14,1.13v12.47h-0.76V8.69c0-0.42-0.34-0.76-0.76-0.76h-0.99c0.07-0.24,0.13-0.5,0.16-0.76H21.08z
		 M10.25,5.03L14.3,6.7l1.38,4.12c-0.35,0.08-0.71,0.13-1.08,0.13c-2.52,0-4.57-2.03-4.57-4.54C10.03,5.94,10.11,5.47,10.25,5.03
		L10.25,5.03z M16.41,10.59l-1.37-4.06l3.05-3.03c0.68,0.79,1.08,1.81,1.08,2.93C19.18,8.29,18.03,9.89,16.41,10.59L16.41,10.59z
		 M14.6,1.89c1.12,0,2.15,0.41,2.95,1.08l-3.04,3.01l-3.97-1.64C11.31,2.88,12.84,1.89,14.6,1.89L14.6,1.89z M1.65,8.31
		c0-0.62,0.51-1.13,1.14-1.13h6.54c0.04,0.26,0.09,0.51,0.16,0.76H3.17c-0.42,0-0.76,0.34-0.76,0.76v12.09H1.65V8.31z M22.99,22.67
		c0,0.62-0.51,1.13-1.14,1.13H2.03c-0.63,0-1.14-0.51-1.14-1.13v-1.13h7.85c0.55,0.49,1.25,0.76,1.99,0.76h2.42
		c0.74,0,1.44-0.27,1.99-0.76h4.8v-0.76h-5.11l-0.11,0.11c-0.42,0.42-0.98,0.65-1.57,0.65h-2.42c-0.59,0-1.15-0.23-1.57-0.65
		l-0.11-0.11H3.17V8.69h6.62c0.86,1.78,2.69,3.02,4.81,3.02s3.95-1.24,4.81-3.02h1.28v12.85h2.29V22.67z M22.99,22.67"/>
	<path class="st0" d="M18.8,17c-0.23,0-0.45,0.07-0.63,0.19l-1.33-0.99c0.03-0.11,0.06-0.22,0.06-0.34c0-0.62-0.51-1.13-1.14-1.13
		c-0.63,0-1.14,0.51-1.14,1.13c0,0.13,0.03,0.25,0.07,0.37l-2.13,1.69c-0.17-0.11-0.38-0.17-0.6-0.17c-0.26,0-0.49,0.09-0.68,0.23
		L9.61,16.9c0.02-0.09,0.04-0.18,0.04-0.28c0-0.62-0.51-1.13-1.14-1.13S7.36,16,7.36,16.62c0,0.1,0.02,0.19,0.04,0.28l-1.64,1.09
		c-0.19-0.14-0.43-0.23-0.68-0.23c-0.63,0-1.14,0.51-1.14,1.13c0,0.62,0.51,1.13,1.14,1.13c0.63,0,1.14-0.51,1.14-1.13
		c0-0.1-0.02-0.19-0.04-0.28l1.64-1.09c0.19,0.14,0.43,0.23,0.68,0.23c0.26,0,0.49-0.09,0.68-0.23l1.64,1.09
		c-0.02,0.09-0.04,0.18-0.04,0.28c0,0.62,0.51,1.13,1.14,1.13c0.63,0,1.14-0.51,1.14-1.13c0-0.13-0.03-0.25-0.07-0.37l2.13-1.69
		c0.17,0.11,0.38,0.17,0.6,0.17c0.23,0,0.45-0.07,0.63-0.19l1.33,0.99c-0.03,0.11-0.06,0.22-0.06,0.34c0,0.62,0.51,1.13,1.14,1.13
		s1.14-0.51,1.14-1.13S19.43,17,18.8,17L18.8,17z M5.08,19.27c-0.21,0-0.38-0.17-0.38-0.38c0-0.21,0.17-0.38,0.38-0.38
		s0.38,0.17,0.38,0.38C5.46,19.1,5.29,19.27,5.08,19.27L5.08,19.27z M8.51,17c-0.21,0-0.38-0.17-0.38-0.38s0.17-0.38,0.38-0.38
		c0.21,0,0.38,0.17,0.38,0.38S8.72,17,8.51,17L8.51,17z M11.94,19.27c-0.21,0-0.38-0.17-0.38-0.38c0-0.21,0.17-0.38,0.38-0.38
		c0.21,0,0.38,0.17,0.38,0.38C12.32,19.1,12.15,19.27,11.94,19.27L11.94,19.27z M15.75,16.25c-0.21,0-0.38-0.17-0.38-0.38
		s0.17-0.38,0.38-0.38c0.21,0,0.38,0.17,0.38,0.38S15.96,16.25,15.75,16.25L15.75,16.25z M18.8,18.51c-0.21,0-0.38-0.17-0.38-0.38
		s0.17-0.38,0.38-0.38s0.38,0.17,0.38,0.38S19.01,18.51,18.8,18.51L18.8,18.51z M18.8,18.51"/>
	<path class="st0" d="M10.03,9.44h-6.1v5.29h6.1V9.44z M9.27,13.98H4.7V10.2h4.57V13.98z M9.27,13.98"/>
	<rect x="5.46" y="10.96" class="st0" width="3.05" height="0.76"/>
	<rect x="5.46" y="12.47" class="st0" width="3.05" height="0.76"/>
	<rect x="10.79" y="13.22" class="st0" width="0.76" height="0.76"/>
	<rect x="12.32" y="13.22" class="st0" width="7.62" height="0.76"/>
</g>
</svg>
