<?xml version="1.0" encoding="utf-8"?>
<!-- Generator: Adobe Illustrator 23.0.1, SVG Export Plug-In . SVG Version: 6.00 Build 0)  -->
<svg version="1.1" id="Layer_1" xmlns="http://www.w3.org/2000/svg" xmlns:xlink="http://www.w3.org/1999/xlink" x="0px" y="0px"
	 viewBox="0 0 25 25" style="enable-background:new 0 0 25 25;" xml:space="preserve">
<style type="text/css">
	.st0{fill:#FFFFFF;}
</style>
<g>
	<path class="st0" d="M16.2,14.79V7.9c0-0.19-0.15-0.34-0.34-0.34H2.89c-0.19,0-0.34,0.15-0.34,0.34v6.89
		c0,0.19,0.15,0.34,0.34,0.34h12.96C16.04,15.14,16.2,14.98,16.2,14.79L16.2,14.79z M15.51,14.45H3.23V8.24h12.27V14.45z
		 M15.51,14.45"/>
	<path class="st0" d="M9.03,15.88v0.28c0,0.19,0.15,0.34,0.34,0.34c0.19,0,0.34-0.15,0.34-0.34v-0.28c0-0.19-0.15-0.34-0.34-0.34
		C9.18,15.54,9.03,15.69,9.03,15.88L9.03,15.88z M9.03,15.88"/>
	<path class="st0" d="M21.85,17.44c0-1.14-0.93-2.07-2.07-2.07c-1.14,0-2.07,0.93-2.07,2.07c0,1.14,0.93,2.07,2.07,2.07
		C20.92,19.51,21.85,18.58,21.85,17.44L21.85,17.44z M18.4,17.44c0-0.76,0.62-1.38,1.38-1.38c0.76,0,1.38,0.62,1.38,1.38
		s-0.62,1.38-1.38,1.38C19.01,18.82,18.4,18.2,18.4,17.44L18.4,17.44z M18.4,17.44"/>
	<path class="st0" d="M17.73,9.9c0,0.19,0.15,0.34,0.34,0.34h3.4c0.19,0,0.34-0.15,0.34-0.34c0-0.19-0.15-0.34-0.34-0.34h-3.4
		C17.88,9.56,17.73,9.71,17.73,9.9L17.73,9.9z M17.73,9.9"/>
	<path class="st0" d="M20.68,8.24c0.19,0,0.34-0.15,0.34-0.34c0-0.19-0.15-0.34-0.34-0.34h-1.81c-0.19,0-0.34,0.15-0.34,0.34
		c0,0.19,0.15,0.34,0.34,0.34H20.68z M20.68,8.24"/>
	<path class="st0" d="M23.34,4.98h-7.13c-0.66,0-1.21,0.49-1.3,1.12h-8.5c-0.19,0-0.34,0.15-0.34,0.34c0,0.19,0.15,0.34,0.34,0.34
		h9.89c0.35,0,0.63,0.28,0.63,0.63v8.95c0,0.35-0.28,0.63-0.63,0.63H2.44c-0.35,0-0.63-0.28-0.63-0.63V7.42
		c0-0.35,0.28-0.63,0.63-0.63h2.68c0.19,0,0.34-0.15,0.34-0.34c0-0.19-0.15-0.34-0.34-0.34H2.44c-0.73,0-1.32,0.59-1.32,1.32v8.95
		c0,0.73,0.59,1.32,1.32,1.32h3.39v1.15c-0.88,0.09-1.57,0.83-1.57,1.73c0,0.41,0.33,0.74,0.74,0.74h8.74
		c0.41,0,0.74-0.33,0.74-0.74c0-0.9-0.69-1.65-1.57-1.73v-1.15h1.98v2.3c0,0.73,0.59,1.32,1.32,1.32h2.02
		c0.19,0,0.34-0.15,0.34-0.34c0-0.19-0.15-0.34-0.34-0.34h-2.02c-0.35,0-0.63-0.28-0.63-0.63v-2.3h0.72c0.73,0,1.32-0.59,1.32-1.32
		v-2.65h5.62c0.19,0,0.34-0.15,0.34-0.34v-1.13c0-0.19-0.15-0.34-0.34-0.34h-5.62V7.42c0-0.73-0.59-1.32-1.32-1.32h-0.68
		c0.08-0.25,0.32-0.43,0.6-0.43h7.13c0.35,0,0.63,0.28,0.63,0.63v13.7c0,0.35-0.28,0.63-0.63,0.63h-3.83
		c-0.19,0-0.34,0.15-0.34,0.34c0,0.19,0.15,0.34,0.34,0.34h3.83c0.73,0,1.32-0.59,1.32-1.32V6.3C24.66,5.57,24.07,4.98,23.34,4.98
		L23.34,4.98z M13.79,20.57c0,0.03-0.02,0.05-0.05,0.05c-9.24-0.02-8.79,0.05-8.79-0.05c0-0.58,0.47-1.05,1.05-1.05h6.73
		C13.32,19.52,13.79,19.99,13.79,20.57L13.79,20.57z M12.22,18.83h-5.7v-1.14h5.7V18.83z M22.89,12.59v0.44h-5.28v-0.44H22.89z
		 M22.89,12.59"/>
</g>
</svg>
