<?xml version="1.0" encoding="utf-8"?>
<!-- Generator: Adobe Illustrator 23.0.1, SVG Export Plug-In . SVG Version: 6.00 Build 0)  -->
<svg version="1.1" id="Layer_1" xmlns="http://www.w3.org/2000/svg" xmlns:xlink="http://www.w3.org/1999/xlink" x="0px" y="0px"
	 viewBox="0 0 25 25" style="enable-background:new 0 0 25 25;" xml:space="preserve">
<style type="text/css">
	.st0{fill:#FFFFFF;}
</style>
<g>
	<path class="st0" d="M21.14,3.68h-2.13V3.06c0-0.74-0.6-1.34-1.34-1.34c-0.74,0-1.34,0.6-1.34,1.34v0.63H8.83V3.06
		c0-0.74-0.6-1.34-1.34-1.34s-1.34,0.6-1.34,1.34V3.7C6.11,3.69,6.07,3.68,6.03,3.68H4.25c-1.23,0-2.23,1-2.23,2.23v7.61
		c0,0.25,0.2,0.45,0.45,0.45s0.45-0.2,0.45-0.45V8.29h16.11c0.25,0,0.45-0.2,0.45-0.45s-0.2-0.45-0.45-0.45H2.91V5.92
		c0-0.74,0.6-1.34,1.34-1.34h1.78c0.04,0,0.08-0.01,0.12-0.02v0.57c0,0.74,0.6,1.34,1.34,1.34s1.34-0.6,1.34-1.34V4.58h7.51v0.56
		c0,0.74,0.6,1.34,1.34,1.34c0.74,0,1.34-0.6,1.34-1.34V4.58h2.13c0.74,0,1.34,0.6,1.34,1.34v16.98c0,0.44-0.36,0.8-0.8,0.8
		c-0.44,0-0.8-0.36-0.8-0.8v-1.16c0-0.25-0.2-0.45-0.45-0.45h-5.2c-0.25,0-0.45,0.2-0.45,0.45c0,0.25,0.2,0.45,0.45,0.45h4.75v0.71
		c0,0.29,0.07,0.56,0.2,0.8H2.2c-0.44,0-0.8-0.36-0.8-0.8v-0.71h10c0.25,0,0.45-0.2,0.45-0.45c0-0.25-0.2-0.45-0.45-0.45H6.93
		c0.78-0.67,1.28-1.67,1.28-2.78c0-2.02-1.64-3.66-3.66-3.66s-3.66,1.64-3.66,3.66c0,1.11,0.5,2.1,1.28,2.78H0.95
		c-0.25,0-0.45,0.2-0.45,0.45v1.16c0,0.94,0.76,1.7,1.7,1.7h19.48c0.94,0,1.7-0.76,1.7-1.7V5.92C23.37,4.69,22.37,3.68,21.14,3.68z
		 M7.93,5.14c0,0.25-0.2,0.45-0.45,0.45s-0.45-0.2-0.45-0.45V3.06c0-0.25,0.2-0.45,0.45-0.45s0.45,0.2,0.45,0.45V5.14z M18.12,5.14
		c0,0.25-0.2,0.45-0.45,0.45c-0.25,0-0.45-0.2-0.45-0.45V3.06c0-0.25,0.2-0.45,0.45-0.45c0.25,0,0.45,0.2,0.45,0.45V5.14z
		 M1.77,18.52c0-1.53,1.24-2.77,2.77-2.77s2.77,1.24,2.77,2.77s-1.24,2.77-2.77,2.77S1.77,20.04,1.77,18.52z"/>
	<path class="st0" d="M21.11,8.29c0.12,0,0.23-0.05,0.32-0.13c0.08-0.08,0.13-0.2,0.13-0.32c0-0.12-0.05-0.23-0.13-0.32
		c-0.08-0.08-0.2-0.13-0.32-0.13c-0.12,0-0.23,0.05-0.32,0.13c-0.08,0.08-0.13,0.2-0.13,0.32c0,0.12,0.05,0.23,0.13,0.32
		C20.87,8.24,20.99,8.29,21.11,8.29z"/>
	<path class="st0" d="M13.21,21.42c-0.08,0.08-0.13,0.2-0.13,0.32c0,0.12,0.05,0.23,0.13,0.32c0.08,0.08,0.2,0.13,0.32,0.13
		s0.23-0.05,0.32-0.13c0.08-0.08,0.13-0.2,0.13-0.32c0-0.12-0.05-0.23-0.13-0.32c-0.08-0.08-0.2-0.13-0.32-0.13
		S13.29,21.34,13.21,21.42z"/>
	<path class="st0" d="M10.61,18.7c0.94,0,1.7-0.76,1.7-1.7s-0.76-1.7-1.7-1.7c-0.94,0-1.7,0.76-1.7,1.7S9.67,18.7,10.61,18.7z
		 M10.61,16.19c0.44,0,0.8,0.36,0.8,0.8s-0.36,0.8-0.8,0.8c-0.44,0-0.8-0.36-0.8-0.8S10.16,16.19,10.61,16.19z"/>
	<path class="st0" d="M14.78,18.7c0.94,0,1.7-0.76,1.7-1.7s-0.76-1.7-1.7-1.7s-1.7,0.76-1.7,1.7S13.84,18.7,14.78,18.7z
		 M14.78,16.19c0.44,0,0.8,0.36,0.8,0.8s-0.36,0.8-0.8,0.8s-0.8-0.36-0.8-0.8S14.33,16.19,14.78,16.19z"/>
	<path class="st0" d="M18.95,18.7c0.94,0,1.7-0.76,1.7-1.7s-0.76-1.7-1.7-1.7s-1.7,0.76-1.7,1.7S18.01,18.7,18.95,18.7z
		 M18.95,16.19c0.44,0,0.8,0.36,0.8,0.8s-0.36,0.8-0.8,0.8s-0.8-0.36-0.8-0.8S18.5,16.19,18.95,16.19z"/>
	<path class="st0" d="M8.14,12.35c0-0.94-0.76-1.7-1.7-1.7s-1.7,0.76-1.7,1.7c0,0.94,0.76,1.7,1.7,1.7S8.14,13.29,8.14,12.35z
		 M5.63,12.35c0-0.44,0.36-0.8,0.8-0.8s0.8,0.36,0.8,0.8c0,0.44-0.36,0.8-0.8,0.8S5.63,12.79,5.63,12.35z"/>
	<path class="st0" d="M14.78,14.05c0.94,0,1.7-0.76,1.7-1.7c0-0.94-0.76-1.7-1.7-1.7s-1.7,0.76-1.7,1.7
		C13.08,13.29,13.84,14.05,14.78,14.05z M14.78,11.55c0.44,0,0.8,0.36,0.8,0.8c0,0.44-0.36,0.8-0.8,0.8s-0.8-0.36-0.8-0.8
		C13.97,11.91,14.33,11.55,14.78,11.55z"/>
	<path class="st0" d="M18.95,14.05c0.94,0,1.7-0.76,1.7-1.7c0-0.94-0.76-1.7-1.7-1.7s-1.7,0.76-1.7,1.7
		C17.25,13.29,18.01,14.05,18.95,14.05z M18.95,11.55c0.44,0,0.8,0.36,0.8,0.8c0,0.44-0.36,0.8-0.8,0.8s-0.8-0.36-0.8-0.8
		C18.14,11.91,18.5,11.55,18.95,11.55z"/>
	<path class="st0" d="M10.61,14.05c0.94,0,1.7-0.76,1.7-1.7c0-0.94-0.76-1.7-1.7-1.7c-0.94,0-1.7,0.76-1.7,1.7
		C8.91,13.29,9.67,14.05,10.61,14.05z M10.61,11.55c0.44,0,0.8,0.36,0.8,0.8c0,0.44-0.36,0.8-0.8,0.8c-0.44,0-0.8-0.36-0.8-0.8
		C9.8,11.91,10.16,11.55,10.61,11.55z"/>
	<path class="st0" d="M3.73,19.83c0.08,0.08,0.2,0.13,0.32,0.13c0.12,0,0.23-0.05,0.32-0.13l1.77-1.77c0.17-0.17,0.17-0.46,0-0.63
		c-0.17-0.17-0.46-0.17-0.63,0l-1.45,1.45l-0.5-0.5c-0.17-0.17-0.46-0.17-0.63,0c-0.17,0.17-0.17,0.46,0,0.63L3.73,19.83z"/>
</g>
</svg>
