<?xml version="1.0" encoding="utf-8"?>
<!-- Generator: Adobe Illustrator 23.0.1, SVG Export Plug-In . SVG Version: 6.00 Build 0)  -->
<svg version="1.1" id="Layer_1" xmlns="http://www.w3.org/2000/svg" xmlns:xlink="http://www.w3.org/1999/xlink" x="0px" y="0px"
	 viewBox="0 0 25 25" style="enable-background:new 0 0 25 25;" xml:space="preserve">
<style type="text/css">
	.st0{fill:#FFFFFF;}
	.st1{clip-path:url(#SVGID_2_);fill:#FFFFFF;}
</style>
<g>
	<path class="st0" d="M8.5,10.01h3.7c0.2,0,0.37-0.17,0.37-0.37c0-0.2-0.17-0.37-0.37-0.37H8.5c-0.2,0-0.37,0.17-0.37,0.37
		C8.13,9.84,8.29,10.01,8.5,10.01L8.5,10.01z M8.5,10.01"/>
	<g>
		<path class="st0" d="M13.31,5.57c0-0.2-0.17-0.37-0.37-0.37H7.02c-0.2,0-0.37,0.17-0.37,0.37c0,0.2,0.17,0.37,0.37,0.37h5.92
			C13.14,5.94,13.31,5.77,13.31,5.57L13.31,5.57z M13.31,5.57"/>
		<path class="st0" d="M13.38,16.54c-0.14-0.14-0.38-0.14-0.52,0l-1.83,1.83l-0.79-0.79c-0.09-0.1-0.23-0.13-0.36-0.1
			c-0.13,0.03-0.23,0.13-0.26,0.26c-0.03,0.13,0,0.27,0.1,0.36l1.05,1.05c0.14,0.14,0.38,0.14,0.52,0l2.09-2.09
			C13.52,16.92,13.52,16.68,13.38,16.54L13.38,16.54z M13.38,16.54"/>
		<path class="st0" d="M11.46,14.08c-2.04,0-3.7,1.66-3.7,3.7s1.66,3.7,3.7,3.7c0.2,0,0.37-0.17,0.37-0.37s-0.17-0.37-0.37-0.37
			c-1.41,0-2.63-1-2.9-2.38c-0.28-1.39,0.47-2.77,1.77-3.31c1.31-0.54,2.81-0.08,3.6,1.09c0.78,1.17,0.63,2.74-0.37,3.74
			c-0.14,0.15-0.14,0.38,0,0.52c0.14,0.14,0.37,0.14,0.52,0c1.06-1.06,1.38-2.65,0.8-4.03C14.3,14.98,12.95,14.08,11.46,14.08
			L11.46,14.08z M11.46,14.08"/>
		<path class="st0" d="M5.53,11.86h6.66c0.2,0,0.37-0.17,0.37-0.37c0-0.2-0.17-0.37-0.37-0.37H5.53c-0.2,0-0.37,0.17-0.37,0.37
			C5.16,11.7,5.33,11.86,5.53,11.86L5.53,11.86z M5.53,11.86"/>
		<path class="st0" d="M5.53,13.71h3.33c0.2,0,0.37-0.17,0.37-0.37s-0.17-0.37-0.37-0.37H5.53c-0.2,0-0.37,0.17-0.37,0.37
			S5.33,13.71,5.53,13.71L5.53,13.71z M5.53,13.71"/>
		<path class="st0" d="M7.02,14.82H5.53c-0.2,0-0.37,0.17-0.37,0.37c0,0.2,0.17,0.37,0.37,0.37h1.48c0.2,0,0.37-0.17,0.37-0.37
			C7.39,14.99,7.22,14.82,7.02,14.82L7.02,14.82z M7.02,14.82"/>
		<path class="st0" d="M6.28,16.67H5.53c-0.2,0-0.37,0.17-0.37,0.37c0,0.2,0.17,0.37,0.37,0.37h0.74c0.2,0,0.37-0.17,0.37-0.37
			C6.65,16.84,6.48,16.67,6.28,16.67L6.28,16.67z M6.28,16.67"/>
		<path class="st0" d="M13.68,11.86h0.74c0.2,0,0.37-0.17,0.37-0.37c0-0.2-0.17-0.37-0.37-0.37h-0.74c-0.2,0-0.37,0.17-0.37,0.37
			C13.31,11.7,13.47,11.86,13.68,11.86L13.68,11.86z M13.68,11.86"/>
		<g>
			<path class="st0" d="M16.27,4.46h-1.48c0-0.61-0.5-1.11-1.11-1.11h-1.11V2.98c0-0.61-0.5-1.11-1.11-1.11H8.5
				c-0.61,0-1.11,0.5-1.11,1.11v0.37H6.28c-0.61,0-1.11,0.5-1.11,1.11H3.68c-1.02,0-1.85,0.83-1.85,1.85v5.55
				c0,0.2,0.17,0.37,0.37,0.37s0.37-0.17,0.37-0.37V6.31c0-0.61,0.5-1.11,1.11-1.11h1.48v0.74H3.68c-0.2,0-0.37,0.17-0.37,0.37V22.6
				c0,0.2,0.17,0.37,0.37,0.37h12.58c0.2,0,0.37-0.17,0.37-0.37V6.31c0-0.2-0.17-0.37-0.37-0.37h-1.48V5.2h1.48
				c0.61,0,1.11,0.5,1.11,1.11V22.6c0,0.61-0.5,1.11-1.11,1.11H3.68c-0.61,0-1.11-0.5-1.11-1.11v-4.44c0-0.2-0.17-0.37-0.37-0.37
				s-0.37,0.17-0.37,0.37v4.44c0,1.02,0.83,1.85,1.85,1.85h12.58c1.02,0,1.85-0.83,1.85-1.85V6.31C18.12,5.29,17.29,4.46,16.27,4.46
				L16.27,4.46z M8.13,2.98c0-0.2,0.17-0.37,0.37-0.37h2.96c0.2,0,0.37,0.17,0.37,0.37v0.37h-3.7V2.98z M15.9,6.68v15.55H4.05V6.68
				h1.11c0,0.61,0.5,1.11,1.11,1.11h4.44c0.2,0,0.37-0.17,0.37-0.37s-0.17-0.37-0.37-0.37H6.28c-0.2,0-0.37-0.17-0.37-0.37V4.46
				c0-0.2,0.17-0.37,0.37-0.37h7.4c0.2,0,0.37,0.17,0.37,0.37v2.22c0,0.2-0.17,0.37-0.37,0.37s-0.37,0.17-0.37,0.37
				s0.17,0.37,0.37,0.37c0.61,0,1.11-0.5,1.11-1.11H15.9z M15.9,6.68"/>
			<g>
				<defs>
					<rect id="SVGID_1_" x="1.83" y="1.87" width="22.21" height="22.58"/>
				</defs>
				<clipPath id="SVGID_2_">
					<use xlink:href="#SVGID_1_"  style="overflow:visible;"/>
				</clipPath>
				<path class="st1" d="M14.79,9.64c0,0.2-0.17,0.37-0.37,0.37c-0.2,0-0.37-0.17-0.37-0.37c0-0.2,0.17-0.37,0.37-0.37
					C14.62,9.27,14.79,9.44,14.79,9.64L14.79,9.64z M14.79,9.64"/>
				<path class="st1" d="M23.67,7.79h-1.11V6.68c0-0.2-0.17-0.37-0.37-0.37h-1.48V5.2c0-0.2,0.17-0.37,0.37-0.37
					c0.2,0,0.37,0.17,0.37,0.37s0.17,0.37,0.37,0.37s0.37-0.17,0.37-0.37c0-0.61-0.5-1.11-1.11-1.11c-0.61,0-1.11,0.5-1.11,1.11
					v1.11c-0.2,0-0.37,0.17-0.37,0.37v10.73c0,0.01,0,0.02,0.01,0.03c0,0.01,0,0.02,0,0.02l0.37,2.56v1.08
					c0,0.61,0.5,1.11,1.11,1.11c0.61,0,1.11-0.5,1.11-1.11v-1.08l0.37-2.56c0-0.01,0-0.02,0-0.02c0-0.01,0.01-0.02,0.01-0.03v-7.4
					h0.74v3.33c0,0.2,0.17,0.37,0.37,0.37c0.2,0,0.37-0.17,0.37-0.37V8.16C24.04,7.96,23.88,7.79,23.67,7.79L23.67,7.79z
					 M21.82,7.05v0.74h-1.48V7.05H21.82z M21.5,19.63h-0.84l-0.26-1.85h1.37L21.5,19.63z M20.34,8.53h1.48v0.74h-1.48V8.53z
					 M21.45,21.11c0,0.2-0.17,0.37-0.37,0.37c-0.2,0-0.37-0.17-0.37-0.37v-0.74h0.74V21.11z M21.82,17.04h-1.48v-7.03h1.48V17.04z
					 M22.56,8.53h0.74v0.74h-0.74V8.53z M22.56,8.53"/>
			</g>
		</g>
	</g>
</g>
</svg>
