<?xml version="1.0" encoding="utf-8"?>
<!-- Generator: Adobe Illustrator 23.0.1, SVG Export Plug-In . SVG Version: 6.00 Build 0)  -->
<svg version="1.1" id="Layer_1" xmlns="http://www.w3.org/2000/svg" xmlns:xlink="http://www.w3.org/1999/xlink" x="0px" y="0px"
	 viewBox="0 0 25 25" style="enable-background:new 0 0 25 25;" xml:space="preserve">
<style type="text/css">
	.st0{fill:#FFFFFF;}
</style>
<g>
	<path class="st0" d="M23.23,14.6h-0.34V4.42c0-1.17-0.95-2.12-2.12-2.12H4.82C3.65,2.3,2.7,3.25,2.7,4.42V14.6H2.36
		c-0.23,0-0.42,0.19-0.42,0.42v0.72c0,1.15,0.93,2.08,2.08,2.08H4.5c-0.34,0.72-0.37,1.55-0.08,2.3l1.41,3.62
		c0.07,0.17,0.23,0.27,0.4,0.27c0.05,0,0.1-0.01,0.15-0.03c0.22-0.08,0.33-0.33,0.24-0.55l-1.41-3.62
		c-0.25-0.64-0.17-1.35,0.22-1.92l0.7-1.02v0.82c0,0.23,0.19,0.42,0.42,0.42c0.23,0,0.42-0.19,0.42-0.42V10.7
		c0-0.33,0.27-0.6,0.6-0.6c0.33,0,0.6,0.27,0.6,0.6v5.59c0,0.23,0.19,0.42,0.42,0.42s0.42-0.19,0.42-0.42v-2
		c0-0.33,0.27-0.6,0.6-0.6s0.6,0.27,0.6,0.6v2c0,0.23,0.19,0.42,0.42,0.42s0.42-0.19,0.42-0.42v-2c0-0.33,0.27-0.6,0.6-0.6
		c0.33,0,0.6,0.27,0.6,0.6v2c0,0.23,0.19,0.42,0.42,0.42c0.23,0,0.42-0.19,0.42-0.42v-2v-0.01c0-0.33,0.27-0.6,0.6-0.6
		s0.6,0.27,0.6,0.6v3.79c0,1.27-0.25,2.51-0.75,3.67l-0.72,1.68c-0.09,0.22,0.01,0.46,0.22,0.56c0.05,0.02,0.11,0.03,0.17,0.03
		c0.16,0,0.32-0.1,0.39-0.26l0.72-1.68c0.54-1.27,0.82-2.62,0.82-4.01v-0.25h6.43c1.15,0,2.08-0.93,2.08-2.08v-0.72
		C23.65,14.79,23.46,14.6,23.23,14.6z M2.78,15.75v-0.3h3.3l-1.04,1.53H4.01C3.33,16.98,2.78,16.42,2.78,15.75z M6.13,10.7v0.93
		h-0.3c-0.42,0-0.76-0.34-0.76-0.76c0-0.42,0.34-0.76,0.76-0.76h0.43C6.18,10.29,6.13,10.49,6.13,10.7z M8.89,10.11h1.51
		c0.42,0,0.76,0.34,0.76,0.76c0,0.42-0.34,0.76-0.76,0.76H9.02V10.7C9.02,10.49,8.97,10.29,8.89,10.11z M13.7,12.84
		c-0.4,0-0.76,0.16-1.02,0.43c-0.26-0.26-0.62-0.42-1.02-0.42c-0.4,0-0.76,0.16-1.02,0.42c-0.26-0.26-0.62-0.42-1.02-0.42
		c-0.21,0-0.41,0.05-0.6,0.13v-0.5h1.38c0.89,0,1.61-0.72,1.61-1.61c0-0.89-0.72-1.61-1.61-1.61H5.83c-0.89,0-1.61,0.72-1.61,1.61
		c0,0.89,0.72,1.61,1.61,1.61h0.3v2.12H3.54V4.42c0-0.7,0.57-1.27,1.27-1.27h15.95c0.7,0,1.27,0.57,1.27,1.27v8.31h-3.65
		c-0.23,0-0.42,0.19-0.42,0.42c0,0.23,0.19,0.42,0.42,0.42h3.65v1.02h-6.9v-0.32C15.14,13.49,14.49,12.84,13.7,12.84z M22.8,15.75
		c0,0.68-0.55,1.23-1.23,1.23h-6.43v-1.53h7.66V15.75z"/>
	<path class="st0" d="M9.24,6.97c-0.11,0-0.22,0.05-0.3,0.12c-0.08,0.08-0.12,0.19-0.12,0.3c0,0.11,0.04,0.22,0.12,0.3
		c0.08,0.08,0.19,0.12,0.3,0.12c0.11,0,0.22-0.05,0.3-0.12c0.08-0.08,0.12-0.19,0.12-0.3c0-0.11-0.05-0.22-0.12-0.3
		C9.46,7.01,9.35,6.97,9.24,6.97z"/>
	<path class="st0" d="M7.7,6.97H4.65c-0.23,0-0.42,0.19-0.42,0.42c0,0.23,0.19,0.42,0.42,0.42H7.7c0.23,0,0.42-0.19,0.42-0.42
		C8.12,7.16,7.93,6.97,7.7,6.97z"/>
	<path class="st0" d="M11.59,4.59H4.65c-0.23,0-0.42,0.19-0.42,0.42c0,0.23,0.19,0.42,0.42,0.42h6.94c0.23,0,0.42-0.19,0.42-0.42
		C12.01,4.78,11.82,4.59,11.59,4.59z"/>
	<path class="st0" d="M21.36,10.7V9.31c0-0.8-0.54-1.47-1.27-1.68V6.99c0-0.47-0.38-0.85-0.85-0.85h-1.49
		c-0.15,0-0.3,0.04-0.42,0.11c-0.12-0.07-0.27-0.11-0.42-0.11h-1.49c-0.47,0-0.85,0.38-0.85,0.85v0.62
		c-0.76,0.19-1.33,0.88-1.33,1.7v1.39c0,0.23,0.19,0.42,0.42,0.42h7.29C21.17,11.12,21.36,10.93,21.36,10.7z M19.24,6.99v0.57h-1.49
		V6.99H19.24z M15.41,6.99h1.49v0.57h-1.49V6.99z M20.51,10.27h-6.44V9.31c0-0.5,0.4-0.9,0.9-0.9h0.01h2.34h2.29
		c0.5,0,0.9,0.4,0.9,0.9L20.51,10.27L20.51,10.27z"/>
</g>
</svg>
