<?xml version="1.0" encoding="utf-8"?>
<!-- Generator: Adobe Illustrator 23.0.1, SVG Export Plug-In . SVG Version: 6.00 Build 0)  -->
<svg version="1.1" id="Layer_1" xmlns="http://www.w3.org/2000/svg" xmlns:xlink="http://www.w3.org/1999/xlink" x="0px" y="0px"
	 viewBox="0 0 25 25" style="enable-background:new 0 0 25 25;" xml:space="preserve">
<style type="text/css">
	.st0{clip-path:url(#SVGID_2_);fill:#FFFFFF;}
	.st1{fill:#FFFFFF;}
</style>
<g>
	<g>
		<defs>
			<rect id="SVGID_1_" x="0.7" y="1.95" width="22.47" height="22.41"/>
		</defs>
		<clipPath id="SVGID_2_">
			<use xlink:href="#SVGID_1_"  style="overflow:visible;"/>
		</clipPath>
		<path class="st0" d="M21.27,1.97h-9.36v0.75h9.36c0.62,0,1.12,0.5,1.12,1.12v14.94c0,0.62-0.5,1.12-1.12,1.12h-9.36v0.75h3.21
			l1.24,1.49h-4.46v0.75h9.18l0.76,0.75h-9.94v0.75h10.86c0.15,0,0.29-0.09,0.35-0.23c0.06-0.14,0.02-0.3-0.08-0.41l-1.52-1.49
			c-0.07-0.07-0.16-0.11-0.26-0.11h-3.91l-1.24-1.49h5.18c1.03,0,1.87-0.84,1.87-1.87V3.83C23.14,2.8,22.3,1.97,21.27,1.97
			L21.27,1.97z M21.27,1.97"/>
		<path class="st0" d="M2.92,15.24c0.04,0.04,0.07,0.09,0.07,0.15c0,0.06-0.03,0.11-0.07,0.15l-2.06,1.59l0.46,0.59l2.06-1.59
			c0.22-0.17,0.36-0.44,0.37-0.72c0.01-0.28-0.11-0.55-0.33-0.74c-1.24-1.06-1.96-2.62-1.96-4.25V9.21c0-0.17,0.01-0.35,0.02-0.52
			h5.43l3.25,2.89c0.1,0.09,0.24,0.12,0.37,0.07l2.9-0.97c0.01,0.02,0.01,0.04,0.02,0.06l0.9,1.49l-1.46,0.58
			c-0.14,0.06-0.24,0.19-0.24,0.35v0.9c0,0.48-0.22,0.93-0.59,1.22c-0.37,0.3-0.86,0.41-1.32,0.31L8.6,15.12
			c-0.33-0.07-0.68,0.01-0.94,0.22l-0.94,0.75c-0.25,0.2-0.4,0.49-0.42,0.81c-0.02,0.32,0.1,0.63,0.33,0.85l0.67,0.67
			c0.56,0.56,0.88,1.32,0.87,2.11v3.84h0.75v-3.84c0-0.99-0.39-1.94-1.09-2.64l-0.67-0.67c-0.08-0.08-0.11-0.18-0.11-0.28
			c0.01-0.11,0.06-0.2,0.14-0.27l0.94-0.75c0.09-0.07,0.2-0.1,0.31-0.07l2.14,0.48c0.69,0.15,1.4-0.01,1.95-0.45
			c0.55-0.44,0.87-1.1,0.87-1.81v-0.64l1.63-0.65c0.1-0.04,0.18-0.12,0.22-0.23c0.03-0.1,0.02-0.22-0.03-0.31l-1.07-1.78V9.21
			c0-0.17-0.01-0.35-0.02-0.52h2.26V7.94h-2.36c-0.27-1.44-1.01-2.75-2.11-3.73h8.98v0.75h-2.27V5.7h2.27v0.75h-0.4v0.75h0.4v1.87
			h-1.52v0.75h1.52v0.75h-0.4v0.75h0.4v2.24h-0.4v0.75h0.4v2.61h-8.99v0.75h9.36c0.21,0,0.37-0.17,0.37-0.37V3.83
			c0-0.21-0.17-0.37-0.37-0.37h-9.36V4.2C9.93,2.43,7.1,1.99,4.68,3.07C2.26,4.15,0.7,6.55,0.7,9.21v1.22
			C0.7,12.27,1.51,14.04,2.92,15.24L2.92,15.24z M13.4,9.21v0.71l-2.9,0.97L8.03,8.69h5.34C13.39,8.86,13.4,9.03,13.4,9.21
			L13.4,9.21z M5.15,3.68c1.64-0.67,3.49-0.59,5.05,0.24c1.57,0.82,2.69,2.3,3.06,4.03H1.59C2,6.02,3.33,4.42,5.15,3.68L5.15,3.68z
			 M5.15,3.68"/>
	</g>
	<rect x="11.16" y="9.06" class="st1" width="0.75" height="0.75"/>
	<rect x="14.89" y="4.95" class="st1" width="1.49" height="0.75"/>
	<rect x="17.13" y="4.95" class="st1" width="0.75" height="0.75"/>
	<rect x="14.89" y="6.45" class="st1" width="0.75" height="0.75"/>
	<rect x="16.39" y="6.45" class="st1" width="0.75" height="0.75"/>
	<rect x="17.88" y="6.45" class="st1" width="1.87" height="0.75"/>
	<rect x="16.39" y="10.56" class="st1" width="0.75" height="0.75"/>
	<rect x="17.88" y="10.56" class="st1" width="1.87" height="0.75"/>
	<rect x="16.39" y="12.05" class="st1" width="2.61" height="0.75"/>
	<rect x="16.39" y="13.54" class="st1" width="1.49" height="0.75"/>
	<rect x="18.63" y="13.54" class="st1" width="1.12" height="0.75"/>
	<rect x="19.75" y="12.05" class="st1" width="0.75" height="0.75"/>
	<rect x="16.39" y="9.06" class="st1" width="0.75" height="0.75"/>
	<rect x="17.88" y="9.06" class="st1" width="0.75" height="0.75"/>
</g>
</svg>
