<?xml version="1.0" encoding="utf-8"?>
<!-- Generator: Adobe Illustrator 23.0.1, SVG Export Plug-In . SVG Version: 6.00 Build 0)  -->
<svg version="1.1" id="Layer_1" xmlns="http://www.w3.org/2000/svg" xmlns:xlink="http://www.w3.org/1999/xlink" x="0px" y="0px"
	 viewBox="0 0 25 25" style="enable-background:new 0 0 25 25;" xml:space="preserve">
<style type="text/css">
	.st0{fill:#FFFFFF;}
</style>
<g>
	<path class="st0" d="M8.66,2.63h12.23c-0.18,0.29-0.28,0.62-0.28,0.98v5.84c0,0.25,0.2,0.45,0.45,0.45s0.45-0.2,0.45-0.45V8.07
		h2.41c0.25,0,0.45-0.2,0.45-0.45V3.61c0-1.03-0.84-1.87-1.87-1.87c-0.08,0-0.32,0-0.36,0H8.66c-0.25,0-0.45,0.2-0.45,0.45
		S8.41,2.63,8.66,2.63z M23.46,3.61v3.57H21.5V3.61c0-0.54,0.44-0.98,0.98-0.98C23.02,2.63,23.46,3.07,23.46,3.61z"/>
	<path class="st0" d="M23.86,19.91L20.95,17c0.34-0.69,0.53-1.46,0.53-2.27c0-2.85-2.32-5.17-5.17-5.17s-5.17,2.32-5.17,5.17
		c0,0.65,0.12,1.28,0.34,1.85l-0.52,0.52l-2.15-2.15c-0.08-0.08-0.2-0.13-0.32-0.13c-0.12,0-0.23,0.05-0.32,0.13l-0.5,0.5v-4.07
		c0-0.25-0.2-0.45-0.45-0.45s-0.45,0.2-0.45,0.45v4.96l-4.03,4.03c-0.17,0.17-0.17,0.46,0,0.63c0.09,0.09,0.2,0.13,0.32,0.13
		s0.23-0.04,0.32-0.13l3.4-3.4v3.21H4.82c-0.25,0-0.45,0.2-0.45,0.45v1.43c0,1.03,0.84,1.87,1.87,1.87h13.37
		c1.03,0,1.87-0.84,1.87-1.87v-0.38c0.31,0.3,0.72,0.47,1.16,0.47c0,0,0.01,0,0.01,0c0.45,0,0.87-0.18,1.19-0.49
		C24.51,21.63,24.52,20.56,23.86,19.91z M12.03,14.73c0-2.36,1.92-4.28,4.28-4.28s4.28,1.92,4.28,4.28s-1.92,4.28-4.28,4.28
		c-1.62,0-3.03-0.91-3.76-2.24l2.58-2.58v1.01c0,0.25,0.2,0.45,0.45,0.45s0.45-0.2,0.45-0.45v-2.14c0-0.25-0.2-0.45-0.45-0.45h-2.14
		c-0.25,0-0.45,0.2-0.45,0.45c0,0.25,0.2,0.45,0.45,0.45h1.12l-2.36,2.36C12.08,15.51,12.03,15.12,12.03,14.73z M5.27,22.69v-0.98
		h12.48v0.53c0,0.01,0,0.03,0,0.04c0,0.01,0,0.03,0,0.04v0.36c0,0.36,0.1,0.7,0.28,0.98H6.25C5.71,23.67,5.27,23.23,5.27,22.69z
		 M19.62,23.67c-0.54,0-0.98-0.44-0.98-0.98v-0.36c0-0.01,0-0.03,0-0.04c0-0.01,0-0.03,0-0.04v-0.98c0-0.25-0.2-0.45-0.45-0.45H7.68
		v-4.1l0.82-0.82l2.15,2.15c0.08,0.08,0.2,0.13,0.32,0.13s0.23-0.05,0.32-0.13l0.62-0.62c0.91,1.48,2.55,2.48,4.41,2.48
		c0.81,0,1.58-0.19,2.26-0.52l2.04,2.04v1.27C20.6,23.23,20.16,23.67,19.62,23.67z M23.22,21.65c-0.15,0.15-0.35,0.23-0.56,0.23
		c0,0,0,0,0,0c-0.21,0-0.4-0.08-0.55-0.23l-2.76-2.76c0.43-0.31,0.81-0.69,1.13-1.12l2.76,2.76C23.54,20.84,23.53,21.34,23.22,21.65
		z"/>
	<path class="st0" d="M15.86,17.55c0,0.25,0.2,0.45,0.45,0.45c1.8,0,3.27-1.47,3.27-3.27c0-0.25-0.2-0.45-0.45-0.45
		s-0.45,0.2-0.45,0.45c0,1.31-1.07,2.38-2.38,2.38C16.06,17.1,15.86,17.3,15.86,17.55z"/>
	<path class="st0" d="M1.97,10.3h10.97c0.25,0,0.45-0.2,0.45-0.45s-0.2-0.45-0.45-0.45h-0.41V6.42c0-0.25-0.2-0.45-0.45-0.45h-2.05
		c-0.25,0-0.45,0.2-0.45,0.45v2.99H8.88V4.59c0-0.25-0.2-0.45-0.45-0.45H6.47c-0.25,0-0.45,0.2-0.45,0.45v4.81H5.31V7.45
		C5.31,7.2,5.11,7,4.87,7H2.91C2.66,7,2.46,7.2,2.46,7.45v1.96H1.97c-0.25,0-0.45,0.2-0.45,0.45S1.72,10.3,1.97,10.3z M10.49,6.87
		h1.16v2.54h-1.16V6.87z M6.92,5.04h1.07v4.37H6.92V5.04z M3.35,7.89h1.07v1.52H3.35V7.89z"/>
	<path class="st0" d="M17.01,4.59c0-0.25-0.2-0.45-0.45-0.45h-3.45c-0.25,0-0.45,0.2-0.45,0.45s0.2,0.45,0.45,0.45h3.45
		C16.81,5.04,17.01,4.84,17.01,4.59z"/>
	<path class="st0" d="M19.09,4.28c-0.08-0.08-0.2-0.13-0.32-0.13s-0.23,0.05-0.32,0.13s-0.13,0.2-0.13,0.32
		c0,0.12,0.05,0.23,0.13,0.32c0.08,0.08,0.2,0.13,0.32,0.13s0.23-0.05,0.32-0.13c0.08-0.08,0.13-0.2,0.13-0.32
		C19.22,4.48,19.17,4.36,19.09,4.28z"/>
	<path class="st0" d="M14.11,6.11c-0.25,0-0.45,0.2-0.45,0.45S13.86,7,14.11,7h0.73c0.25,0,0.45-0.2,0.45-0.45s-0.2-0.45-0.45-0.45
		H14.11z"/>
	<path class="st0" d="M16.57,7h2.21c0.25,0,0.45-0.2,0.45-0.45s-0.2-0.45-0.45-0.45h-2.21c-0.25,0-0.45,0.2-0.45,0.45
		S16.32,7,16.57,7z"/>
	<path class="st0" d="M1.97,21.35c-0.12,0-0.23,0.05-0.32,0.13c-0.08,0.08-0.13,0.2-0.13,0.32s0.05,0.23,0.13,0.32
		c0.08,0.08,0.2,0.13,0.32,0.13c0.12,0,0.23-0.05,0.32-0.13c0.08-0.08,0.13-0.2,0.13-0.32s-0.05-0.23-0.13-0.32
		C2.2,21.39,2.09,21.35,1.97,21.35z"/>
</g>
</svg>
