<?xml version="1.0" encoding="utf-8"?>
<!-- Generator: Adobe Illustrator 23.0.1, SVG Export Plug-In . SVG Version: 6.00 Build 0)  -->
<svg version="1.1" id="Layer_1" xmlns="http://www.w3.org/2000/svg" xmlns:xlink="http://www.w3.org/1999/xlink" x="0px" y="0px"
	 viewBox="0 0 25 25" style="enable-background:new 0 0 25 25;" xml:space="preserve">
<style type="text/css">
	.st0{fill:#FFFFFF;}
</style>
<g>
	<path class="st0" d="M24.35,10.41c-0.01-0.02-0.01-0.04-0.02-0.07c-0.01-0.02-0.02-0.04-0.04-0.06c-0.02-0.02-0.03-0.04-0.05-0.06
		c-0.01-0.01-0.01-0.01-0.02-0.02l-3.66-2.85V4.42c0-0.63-0.51-1.14-1.14-1.14h-4.13l-1.65-1.28c-0.41-0.32-0.98-0.32-1.39,0
		l-1.65,1.28H6.46c-0.63,0-1.14,0.51-1.14,1.14v2.95l-3.66,2.85c-0.01,0-0.01,0.01-0.02,0.02c-0.02,0.02-0.04,0.04-0.05,0.06
		c-0.01,0.02-0.03,0.04-0.04,0.06c-0.01,0.02-0.02,0.04-0.02,0.07c-0.01,0.02-0.01,0.05-0.02,0.08c0,0.01,0,0.01,0,0.02v12.96
		c0,0.12,0.02,0.24,0.06,0.36c-0.09,0.13-0.08,0.3,0.01,0.43c0.09,0.13,0.26,0.18,0.41,0.14c0.19,0.14,0.42,0.21,0.66,0.21h20.58
		c0.24,0,0.47-0.08,0.66-0.21c0.03,0.01,0.07,0.02,0.1,0.02c0.14,0,0.27-0.08,0.33-0.2c0.07-0.12,0.06-0.27-0.02-0.39
		c0.04-0.12,0.06-0.24,0.06-0.36V10.51c0-0.01,0-0.01,0-0.02C24.36,10.47,24.36,10.44,24.35,10.41z M12.71,2.59
		c0.13-0.11,0.32-0.11,0.45,0l0.88,0.68h-2.21L12.71,2.59z M5.7,11.66c0.21,0,0.38-0.17,0.38-0.38V4.42c0-0.21,0.17-0.38,0.38-0.38
		h12.96c0.21,0,0.38,0.17,0.38,0.38v6.86c0,0.21,0.17,0.38,0.38,0.38c0.21,0,0.38-0.17,0.38-0.38V8.33l2.68,2.08l-6.36,4.94
		c-0.17,0.13-0.2,0.37-0.07,0.53c0.13,0.17,0.37,0.2,0.53,0.07l6.26-4.86v12.16l-9.98-7.75c-0.41-0.32-0.98-0.32-1.39,0l-9.98,7.75
		V11.1l6.25,4.85c0.17,0.13,0.41,0.1,0.53-0.07c0.13-0.17,0.1-0.41-0.07-0.53l-6.35-4.93l2.68-2.08v2.94
		C5.31,11.49,5.49,11.66,5.7,11.66z M23.13,23.85H2.74l9.97-7.74c0.13-0.11,0.32-0.11,0.45,0L23.13,23.85z"/>
	<path class="st0" d="M9.13,6.7h7.62c0.21,0,0.38-0.17,0.38-0.38c0-0.21-0.17-0.38-0.38-0.38H9.13c-0.21,0-0.38,0.17-0.38,0.38
		C8.74,6.53,8.92,6.7,9.13,6.7z"/>
	<path class="st0" d="M9.13,8.99h7.62c0.21,0,0.38-0.17,0.38-0.38s-0.17-0.38-0.38-0.38H9.13c-0.21,0-0.38,0.17-0.38,0.38
		S8.92,8.99,9.13,8.99z"/>
	<path class="st0" d="M16.75,10.51h-3.43c-0.21,0-0.38,0.17-0.38,0.38s0.17,0.38,0.38,0.38h3.43c0.21,0,0.38-0.17,0.38-0.38
		S16.96,10.51,16.75,10.51z"/>
</g>
</svg>
