<svg xmlns="http://www.w3.org/2000/svg" viewBox="0 0 24.55 29.45"><title>icon-ticket</title><path d="M11.11,12H21.31a.55.55,0,0,0,0-1.1H11.11a.55.55,0,1,0,0,1.1Zm0,0" style="fill:#fff"/><path d="M11.11,14.9h7.4a.55.55,0,0,0,0-1.1h-7.4a.55.55,0,1,0,0,1.1Zm0,0" style="fill:#fff"/><path d="M11.11,17.57H21.31a.55.55,0,0,0,0-1.1H11.11a.55.55,0,1,0,0,1.1Zm0,0" style="fill:#fff"/><path d="M12.08,19.51h-1a.55.55,0,1,0,0,1.1h1a.55.55,0,1,0,0-1.1Zm0,0" style="fill:#fff"/><path d="M12.08,22.18h-1a.55.55,0,1,0,0,1.1h1a.55.55,0,1,0,0-1.1Zm0,0" style="fill:#fff"/><path d="M21.31,19.51h-7a.55.55,0,1,0,0,1.1h7a.55.55,0,0,0,0-1.1Zm0,0" style="fill:#fff"/><path d="M19.06,22.72a.55.55,0,0,0-.55-.55H14.26a.55.55,0,1,0,0,1.1h4.25a.55.55,0,0,0,.55-.55Zm0,0" style="fill:#fff"/><path d="M18,29.29a.55.55,0,0,0,.77,0l1.86-1.86,1.86,1.86a.54.54,0,0,0,.77,0l1.12-1.12a.55.55,0,0,0,.16-.39V9.17a2.49,2.49,0,0,0-2.49-2.49H17.87V.55A.55.55,0,0,0,17.32,0H.55A.55.55,0,0,0,0,.55v18.6a2.49,2.49,0,0,0,2.49,2.49H5.64a.55.55,0,0,0,0-1.1H4.55A2.48,2.48,0,0,0,5,19.14v-10a1.4,1.4,0,0,1,2.8,0v18.6a.65.65,0,0,0,0,.11l0,.07v0l0,.07v0l.07.08,1.12,1.12a.55.55,0,0,0,.77,0l1.86-1.86,1.86,1.86a.55.55,0,0,0,.77,0l1.86-1.86ZM3.89,9.17v10a1.4,1.4,0,0,1-2.8,0V1.09H16.78v5.6H6.38A2.49,2.49,0,0,0,3.89,9.17Zm10,19-1.86-1.86a.54.54,0,0,0-.77,0L9.44,28.13l-.57-.57V9.17c0-.08,0-.16,0-.23s0,0,0-.07a1.48,1.48,0,0,0,0-.16V8.65a1.28,1.28,0,0,0-.05-.2h0a1.93,1.93,0,0,0-.08-.2l0-.06s0-.1-.07-.14l0-.06-.1-.17v0H22a1.4,1.4,0,0,1,1.4,1.4V27.55l-.57.57L21,26.27a.55.55,0,0,0-.77,0l-1.86,1.86-1.84-1.85a.55.55,0,0,0-.77,0Zm0,0" style="fill:#fff"/></svg>