<svg xmlns="http://www.w3.org/2000/svg" xmlns:xlink="http://www.w3.org/1999/xlink" viewBox="0 0 31.33 32.55"><defs><clipPath id="a" transform="translate(0 -0.43)"><rect width="31.32" height="33.72" style="fill:none"/></clipPath></defs><title>icon-inbox</title><g style="clip-path:url(#a)"><path d="M9.83,20.09a5.58,5.58,0,0,0,5.83,5.53,5.58,5.58,0,0,0,5.84-5.53h7L27.32,17A36,36,0,0,1,24,1.81V.43H6.76V2.58A35.58,35.58,0,0,1,4,16.39l-1.34,3.7Zm0,0" transform="translate(0 -0.43)" style="fill:#f2ecbf"/><path d="M25.36,11.42a39.68,39.68,0,0,0,2,5.57l1.23,3.1h2.78Zm0,0" transform="translate(0 -0.43)" style="fill:#2d8540"/></g><path d="M5.31,12.34,0,20.09H2.62L4,16.39a39.58,39.58,0,0,0,1.35-4Zm0,0" transform="translate(0 -0.43)" style="fill:#2d8540"/><path d="M19,4.12H12.28a.61.61,0,0,1,0-1.23H19a.61.61,0,0,1,0,1.23Zm0,0" transform="translate(0 -0.43)" style="fill:#bbb396"/><path d="M21.5,8.41H9.83a.61.61,0,1,1,0-1.23H21.5a.61.61,0,1,1,0,1.23Zm0,0" transform="translate(0 -0.43)" style="fill:#bbb396"/><path d="M22.73,12.71H8.6a.61.61,0,1,1,0-1.23H22.73a.61.61,0,0,1,0,1.23Zm0,0" transform="translate(0 -0.43)" style="fill:#bbb396"/><path d="M24,16.4H7.37a.61.61,0,1,1,0-1.23H24a.61.61,0,1,1,0,1.23Zm0,0" transform="translate(0 -0.43)" style="fill:#bbb396"/><path d="M17.81,22.54h-4.3a.61.61,0,0,1,0-1.23h4.3a.61.61,0,1,1,0,1.23Zm0,0" transform="translate(0 -0.43)" style="fill:#bbb396"/><g style="clip-path:url(#a)"><path d="M19,19.47H12.28a.61.61,0,0,1,0-1.23H19a.61.61,0,1,1,0,1.23Zm0,0" transform="translate(0 -0.43)" style="fill:#bbb396"/><path d="M28.55,20.09h-7a5.58,5.58,0,0,1-5.84,5.53,5.58,5.58,0,0,1-5.83-5.53H0V33H31.33V20.09Zm0,0" transform="translate(0 -0.43)" style="fill:#5ebc5d"/></g></svg>