<svg xmlns="http://www.w3.org/2000/svg" xmlns:xlink="http://www.w3.org/1999/xlink" viewBox="0 0 32.17 32.01"><defs><clipPath id="a" transform="translate(0 -0.04)"><rect width="32.17" height="32.09" style="fill:none"/></clipPath></defs><title>icon-lab</title><g style="clip-path:url(#a)"><path d="M29.69,20.13a.8.8,0,0,0-.8.8V28a2.41,2.41,0,0,1-2.4,2.4H4A2.41,2.41,0,0,1,1.6,28V7.17A2.41,2.41,0,0,1,4,4.76h7.11a.8.8,0,0,0,0-1.6H4a4,4,0,0,0-4,4V28a4,4,0,0,0,4,4H26.49a4,4,0,0,0,4-4V20.93a.8.8,0,0,0-.8-.8Zm0,0" transform="translate(0 -0.04)" style="fill:#fff"/><path d="M30.18,1.1a3.61,3.61,0,0,0-5.1,0l-14.3,14.3a.8.8,0,0,0-.21.35L8.7,22.53a.8.8,0,0,0,1,1l6.79-1.88a.8.8,0,0,0,.35-.21l14.3-14.3a3.61,3.61,0,0,0,0-5.1ZM12.53,15.91l11.7-11.7L28,8,16.3,19.69Zm-.75,1.51,3,3L10.62,21.6ZM30,6l-.85.85L25.36,3.08l.85-.85a2,2,0,0,1,2.83,0l.94.94A2,2,0,0,1,30,6Zm0,0" transform="translate(0 -0.04)" style="fill:#fff"/></g></svg>