<svg xmlns="http://www.w3.org/2000/svg" xmlns:xlink="http://www.w3.org/1999/xlink" viewBox="0 0 34.24 34.24"><defs><clipPath id="a"><rect y="0.01" width="34.22" height="34.31" style="fill:none"/></clipPath></defs><title>icon-settings</title><g style="clip-path:url(#a)"><path d="M32.49,13.53l-2.4-.41a13.59,13.59,0,0,0-1-2.33l1.42-2a2.11,2.11,0,0,0-.23-2.73L28.17,3.95a2.1,2.1,0,0,0-1.5-.62,2.08,2.08,0,0,0-1.22.39l-2,1.42a13.42,13.42,0,0,0-2.42-1l-.4-2.37A2.11,2.11,0,0,0,18.56,0h-3a2.11,2.11,0,0,0-2.09,1.77L13,4.2a13.22,13.22,0,0,0-2.32,1l-2-1.42A2.11,2.11,0,0,0,6,4L3.89,6.12a2.12,2.12,0,0,0-.23,2.73l1.43,2a13.22,13.22,0,0,0-1,2.34l-2.37.4A2.11,2.11,0,0,0,0,15.69v3a2.11,2.11,0,0,0,1.77,2.09l2.43.41a13.24,13.24,0,0,0,1,2.32l-1.41,2A2.11,2.11,0,0,0,4,28.21l2.13,2.13a2.1,2.1,0,0,0,2.72.23l2-1.43a13.53,13.53,0,0,0,2.26.93l.4,2.4a2.11,2.11,0,0,0,2.09,1.77h3a2.11,2.11,0,0,0,2.09-1.77l.41-2.4a13.55,13.55,0,0,0,2.33-1l2,1.42a2.11,2.11,0,0,0,2.73-.23l2.13-2.13a2.12,2.12,0,0,0,.23-2.73l-1.42-2a13.43,13.43,0,0,0,1-2.33l2.4-.4a2.11,2.11,0,0,0,1.77-2.09v-3a2.09,2.09,0,0,0-1.75-2.09Zm-.16,5.1a.19.19,0,0,1-.16.19l-3,.5a1,1,0,0,0-.77.71,11.46,11.46,0,0,1-1.24,3,1,1,0,0,0,0,1.05L29,26.56a.2.2,0,0,1,0,.24L26.8,28.93a.18.18,0,0,1-.14.06.18.18,0,0,1-.11,0l-2.48-1.77a1,1,0,0,0-1.05,0,11.45,11.45,0,0,1-3,1.24,1,1,0,0,0-.71.77l-.51,3a.19.19,0,0,1-.19.16h-3a.19.19,0,0,1-.19-.16l-.5-3a1,1,0,0,0-.71-.77,11.89,11.89,0,0,1-2.93-1.2,1,1,0,0,0-.49-.13.94.94,0,0,0-.56.18L7.74,29a.21.21,0,0,1-.11,0A.19.19,0,0,1,7.5,29L5.36,26.86a.19.19,0,0,1,0-.24L7.1,24.15a1,1,0,0,0,0-1.06,11.33,11.33,0,0,1-1.26-3,1,1,0,0,0-.77-.71l-3-.52a.18.18,0,0,1-.16-.19v-3a.19.19,0,0,1,.16-.19l3-.5a1,1,0,0,0,.78-.72,11.43,11.43,0,0,1,1.22-3,1,1,0,0,0-.05-1L5.24,7.73a.19.19,0,0,1,0-.24L7.4,5.36a.18.18,0,0,1,.14-.06.18.18,0,0,1,.11,0L10.11,7.1a1,1,0,0,0,1.06,0,11.35,11.35,0,0,1,3-1.26,1,1,0,0,0,.71-.77l.52-3a.18.18,0,0,1,.19-.16h3a.18.18,0,0,1,.19.16l.5,3a1,1,0,0,0,.72.78A11.61,11.61,0,0,1,23,7.1a1,1,0,0,0,1.05,0l2.47-1.77a.21.21,0,0,1,.11,0,.19.19,0,0,1,.14.06l2.13,2.13a.19.19,0,0,1,0,.24l-1.77,2.48a1,1,0,0,0,0,1.05,11.45,11.45,0,0,1,1.24,3,1,1,0,0,0,.77.71l3,.51a.19.19,0,0,1,.16.19v3Zm0,0" style="fill:#34434c"/></g><path d="M17.12,9.73a7.39,7.39,0,1,0,7.39,7.39,7.39,7.39,0,0,0-7.39-7.39Zm0,12.85a5.46,5.46,0,1,1,5.46-5.46,5.46,5.46,0,0,1-5.46,5.46Zm0,0" style="fill:#34434c"/></svg>