<?xml version="1.0" encoding="utf-8"?>
<!-- Generator: Adobe Illustrator 21.0.2, SVG Export Plug-In . SVG Version: 6.00 Build 0)  -->
<svg version="1.1" id="Layer_1" xmlns="http://www.w3.org/2000/svg" xmlns:xlink="http://www.w3.org/1999/xlink" x="0px" y="0px"
	 viewBox="0 0 21 21" style="enable-background:new 0 0 21 21;" xml:space="preserve">
<style type="text/css">
	.st0{fill:#00A651;}
	.st1{clip-path:url(#SVGID_2_);}
</style>
<title>icon-true</title>
<g>
	<path class="st0" d="M21,21H0V0h21V21z M1,20h19V1H1V20z"/>
</g>
<g>
	<defs>
		<rect id="SVGID_1_" x="2.8" y="4.7" width="15.3" height="11.7"/>
	</defs>
	<clipPath id="SVGID_2_">
		<use xlink:href="#SVGID_1_"  style="overflow:visible;"/>
	</clipPath>
	<g class="st1">
		<g>
			<path class="st0" d="M3,11.1c-0.1-0.1-0.2-0.3-0.2-0.4c0-0.2,0.1-0.3,0.2-0.4l0.8-0.8c0.2-0.2,0.6-0.2,0.8,0c0,0,0,0,0,0l0.1,0.1
				L7.9,13c0.1,0.1,0.3,0.1,0.4,0c0,0,0,0,0,0l7.8-8.1h0.1c0.2-0.2,0.6-0.2,0.8,0c0,0,0,0,0,0l0.8,0.8c0.2,0.2,0.2,0.6,0,0.8
				c0,0,0,0,0,0l-9.3,9.7c-0.2,0.2-0.6,0.2-0.8,0c0,0,0,0,0,0l-4.6-4.9L3,11.1z"/>
		</g>
	</g>
</g>
</svg>
