<svg xmlns="http://www.w3.org/2000/svg" viewBox="0 0 18.59 23.24"><title>icon-attachment</title><path d="M15.11,9.68H5.42a.39.39,0,1,0,0,.78h9.68a.39.39,0,0,0,0-.78Zm0,0" style="fill:#34434c"/><path d="M5.42,7.36H9.3a.39.39,0,1,0,0-.77H5.42a.39.39,0,1,0,0,.77Zm0,0" style="fill:#34434c"/><path d="M15.11,12.78H5.42a.39.39,0,0,0,0,.78h9.68a.39.39,0,0,0,0-.78Zm0,0" style="fill:#34434c"/><path d="M15.11,15.88H5.42a.39.39,0,1,0,0,.77h9.68a.39.39,0,1,0,0-.77Zm0,0" style="fill:#34434c"/><path d="M15.11,19H5.42a.39.39,0,1,0,0,.78h9.68a.39.39,0,1,0,0-.78Zm0,0" style="fill:#34434c"/><path d="M16.66,5.65V0H0V21.31H1.94v1.94H18.59V7.59ZM13.17,3.26l4.1,4.1h-4.1ZM.78,20.53V.78H15.88v4.1L12.94,1.94h-11V20.53Zm1.94,1.94V2.71H12.4V8.14h5.42V22.47Zm0,0" style="fill:#34434c"/></svg>