<svg xmlns="http://www.w3.org/2000/svg" viewBox="0 0 18.2 17.86"><title>icon-task</title><path d="M17.55,16.59H.65a.64.64,0,0,0-.63.63.65.65,0,0,0,.63.63H17.57a.64.64,0,0,0,.63-.63.65.65,0,0,0-.65-.63Zm0,0" style="fill:#fff"/><path d="M0,11l0,3a.65.65,0,0,0,.19.46.62.62,0,0,0,.45.19l3,0a.62.62,0,0,0,.45-.19L14.43,4.09a.65.65,0,0,0,0-.91l-3-3a.65.65,0,0,0-.91,0L8.48,2.27.2,10.54A.69.69,0,0,0,0,11ZM11,1.54,13.1,3.63,11.93,4.8,9.84,2.72ZM1.3,11.26,8.93,3.63,11,5.72,3.38,13.33l-2.1,0Zm0,0" style="fill:#fff"/></svg>