<svg xmlns="http://www.w3.org/2000/svg" xmlns:xlink="http://www.w3.org/1999/xlink" viewBox="0 0 24.54 22.86"><defs><clipPath id="a" transform="translate(-24.8 -23.15)"><rect width="74.26" height="69.29" style="fill:none"/></clipPath></defs><title>icon-export</title><g style="clip-path:url(#a)"><path d="M37.77,32.95a.68.68,0,0,0,0,1,2.86,2.86,0,0,1,0,4L31.92,43.8a2.86,2.86,0,0,1-4,0L27,42.92a2.86,2.86,0,0,1,0-4L32.85,33a.69.69,0,0,0-1-1L26,37.92a4.22,4.22,0,0,0,0,6l.88.88a4.23,4.23,0,0,0,6,0l5.85-5.85a4.23,4.23,0,0,0,0-6,.68.68,0,0,0-1,0Zm0,0" transform="translate(-24.8 -23.15)" style="fill:#fff"/><path d="M48.11,25.27l-.88-.88a4.23,4.23,0,0,0-6,0L35.4,30.24a4.23,4.23,0,0,0,0,6,.69.69,0,0,0,1-1,2.86,2.86,0,0,1,0-4l5.85-5.85a2.86,2.86,0,0,1,4,0l.88.88a2.86,2.86,0,0,1,0,4l-5.85,5.85a.69.69,0,0,0,.48,1.17.67.67,0,0,0,.48-.2l5.85-5.85a4.23,4.23,0,0,0,0-6Zm0,0" transform="translate(-24.8 -23.15)" style="fill:#fff"/></g></svg>