<?xml version="1.0" encoding="utf-8"?>
<!-- Generator: Adobe Illustrator 21.0.2, SVG Export Plug-In . SVG Version: 6.00 Build 0)  -->
<svg version="1.1" id="Layer_1" xmlns="http://www.w3.org/2000/svg" xmlns:xlink="http://www.w3.org/1999/xlink" x="0px" y="0px"
	 viewBox="0 0 21 21" style="enable-background:new 0 0 21 21;" xml:space="preserve">
<style type="text/css">
	.st0{fill:#ED1C24;}
	.st1{clip-path:url(#SVGID_2_);}
</style>
<title>icon-false</title>
<g>
	<path class="st0" d="M21,21H0V0h21V21z M1,20h19V1H1V20z"/>
</g>
<g>
	<defs>
		<rect id="SVGID_1_" x="4.1" y="4" width="12.7" height="13"/>
	</defs>
	<clipPath id="SVGID_2_">
		<use xlink:href="#SVGID_1_"  style="overflow:visible;"/>
	</clipPath>
	<g class="st1">
		<g>
			<path class="st0" d="M11.5,10.4l4.9-4.9c0.3-0.3,0.3-0.8,0-1.1c-0.3-0.3-0.8-0.3-1.1,0l0,0l-4.9,4.9L5.5,4.4C5.2,4,4.7,4,4.4,4.3
				C4,4.5,4,5,4.2,5.4c0,0,0.1,0.1,0.1,0.1l4.9,4.9l-4.9,4.9c-0.3,0.3-0.2,0.8,0.1,1.1c0.3,0.2,0.7,0.2,1,0l4.9-4.9l4.9,4.9
				c0.3,0.3,0.8,0.3,1.1,0c0.3-0.3,0.3-0.8,0-1.1L11.5,10.4z"/>
		</g>
	</g>
</g>
</svg>
