<svg xmlns="http://www.w3.org/2000/svg" viewBox="0 0 26.29 30.16"><title>icon-new-msg</title><path d="M.66,30.16h25a.66.66,0,0,0,.66-.66V8l-8-8H.66A.66.66,0,0,0,0,.66V29.5A.66.66,0,0,0,.66,30.16Z" style="fill:#e6eaea"/><path d="M25.63,30.16a.66.66,0,0,0,.66-.66V8l-8-8H13.67V30.16Z" style="fill:#ced5d5"/><path d="M18.9,8h7.39l-8-8V7.39A.66.66,0,0,0,18.9,8Z" style="fill:#9baaab"/><path d="M4.53,23.56H21.76a.66.66,0,0,1,0,1.32H4.53a.66.66,0,0,1,0-1.32Z" style="fill:#f68c30"/><path d="M4.53,17.94H21.76a.66.66,0,0,1,0,1.32H4.53a.66.66,0,1,1,0-1.32Z" style="fill:#f68c30"/><path d="M4.53,12.31H21.76a.66.66,0,1,1,0,1.32H4.53a.66.66,0,0,1,0-1.32Z" style="fill:#f68c30"/><path d="M4.53,6.68H21.76a.66.66,0,1,1,0,1.32H4.53a.66.66,0,1,1,0-1.32Z" style="fill:#f68c30"/><path d="M21.76,24.88a.66.66,0,0,0,0-1.32H13.67v1.32Z" style="fill:#ef393e"/><path d="M21.76,19.26a.66.66,0,0,0,0-1.32H13.67v1.32Z" style="fill:#ef393e"/><path d="M22.42,13a.66.66,0,0,0-.66-.66H13.67v1.32h8.09A.66.66,0,0,0,22.42,13Z" style="fill:#ef393e"/><path d="M22.42,7.34a.66.66,0,0,0-.66-.66H13.67V8h8.09A.66.66,0,0,0,22.42,7.34Z" style="fill:#ef393e"/><path d="M18.9,8h7.39l-8-8V7.39A.66.66,0,0,0,18.9,8Z" style="fill:#9baaab"/></svg>