<svg xmlns="http://www.w3.org/2000/svg" viewBox="0 0 48.15 59.66"><title>os-android</title><path d="M31.26,5.94l2.61-4.36A1,1,0,1,0,32.08.51L29.32,5.11a15.39,15.39,0,0,0-10.48,0L16.08.51a1,1,0,1,0-1.8,1.07L16.9,5.94A15.7,15.7,0,0,0,8.38,19.89a1,1,0,0,0,1,1H38.73a1,1,0,0,0,1-1A15.72,15.72,0,0,0,31.26,5.94ZM10.51,18.84a13.61,13.61,0,0,1,27.13,0Zm0,0" style="fill:#34434c"/><path d="M31.37,11.89H30a.69.69,0,0,0-.69.69V14a.69.69,0,0,0,.69.69h1.38a.69.69,0,0,0,.69-.69V12.58a.7.7,0,0,0-.7-.69Zm0,0" style="fill:#34434c"/><path d="M18.15,11.89H16.77a.69.69,0,0,0-.69.69V14a.69.69,0,0,0,.69.69h1.38a.69.69,0,0,0,.69-.69V12.58a.69.69,0,0,0-.69-.69Zm0,0" style="fill:#34434c"/><path d="M38.73,22H9.42a1,1,0,0,0-1,1V44.14a5.07,5.07,0,0,0,5.06,5.05h1.22v6.29a4.19,4.19,0,0,0,8.38,0V49.2h2.09v6.29a4.19,4.19,0,0,0,8.38,0V49.2h1.22a5.06,5.06,0,0,0,5.06-5.05V23a1,1,0,0,0-1-1Zm-1,22.16a3,3,0,0,1-3,3H32.45a1,1,0,0,0-1,1v7.33a2.09,2.09,0,0,1-4.19,0V48.15a1,1,0,0,0-1-1H22a1,1,0,0,0-1,1v7.33a2.09,2.09,0,0,1-4.19,0V48.15a1,1,0,0,0-1-1H13.44a3,3,0,0,1-3-3V24.08H37.68Zm0,0" style="fill:#34434c"/><path d="M44.48,22a3.67,3.67,0,0,0-3.66,3.67V40.29a3.66,3.66,0,1,0,7.33,0V25.65A3.67,3.67,0,0,0,44.48,22Zm1.57,18.31a1.57,1.57,0,1,1-3.14,0V25.65a1.57,1.57,0,1,1,3.14,0Zm0,0" style="fill:#34434c"/><path d="M3.66,22A3.67,3.67,0,0,0,0,25.65V40.29a3.66,3.66,0,1,0,7.33,0V25.65A3.67,3.67,0,0,0,3.66,22ZM5.23,40.29a1.57,1.57,0,1,1-3.14,0V25.65a1.57,1.57,0,1,1,3.14,0Zm0,0" style="fill:#34434c"/></svg>