<svg xmlns="http://www.w3.org/2000/svg" xmlns:xlink="http://www.w3.org/1999/xlink" viewBox="0 0 50.91 59.61"><defs><clipPath id="a"><rect y="0.04" width="51.01" height="59.8" style="fill:none"/></clipPath></defs><title>os-linux</title><g style="clip-path:url(#a)"><path d="M49.33,47.86c-1.75-.72-2.5-1.67-2.42-3.08a4.73,4.73,0,0,0-1.31-3.35,14.49,14.49,0,0,0,0-7.68c-1.13-3.31-4.6-8.36-8.17-13.33-1.46-2-1.53-4.26-1.61-6.82a20.75,20.75,0,0,0-1.53-8.31A8.59,8.59,0,0,0,26.11,0a11.19,11.19,0,0,0-6.22,1.89c-3.57,2.46-3.1,7.84-2.79,11.39,0,.49.08.95.11,1.34.21,3.48,0,5.32-.23,5.87A24,24,0,0,1,15.2,23c-.86,1.14-1.84,2.42-2.64,3.62a28.43,28.43,0,0,0-2.48,5.78,27.71,27.71,0,0,1-1.56,3.92,5.33,5.33,0,0,0-.52,4A4.12,4.12,0,0,0,6.68,42c-.53,1.13-1.61,1.74-3.85,2.17A3,3,0,0,0,.72,45.46a3.65,3.65,0,0,0,0,2.92c.4,1.18.15,1.93-.3,3.29-.1.31-.22.67-.34,1.06A1.91,1.91,0,0,0,.3,54.4c.85,1.29,3.32,1.75,5.86,2.05a22.55,22.55,0,0,1,4.79,1.38,22.46,22.46,0,0,0,4.68,1.35,5.26,5.26,0,0,0,.66,0,3.9,3.9,0,0,0,3.56-2.09,39.6,39.6,0,0,1,6.42-.76,28,28,0,0,1,6.39.66,5.14,5.14,0,0,0,1.92,2.1,4.68,4.68,0,0,0,2.16.49A5.22,5.22,0,0,0,40.56,58c1.3-1.37,4.53-3.13,6.9-4.41l1.45-.79a3.25,3.25,0,0,0,2-2.89,2.44,2.44,0,0,0-1.58-2.09Zm-29.41-.26c-.17-1.17-1.66-2.32-3.4-3.66-1.42-1.09-3-2.33-3.47-3.38-.92-2.17-.19-6,1.06-7.94a20.13,20.13,0,0,0,1.62-3.91,14.05,14.05,0,0,1,1.69-3.87,9.87,9.87,0,0,0,2-4.92c.91.87,2.32,2,3.62,2a2.14,2.14,0,0,0,.58-.08,19.57,19.57,0,0,0,3.47-1.75,14.81,14.81,0,0,1,3-1.48C31,19.83,36,31,36.53,34.62a17,17,0,0,1-.24,6.11,4.48,4.48,0,0,0-.6,0c-1.41,0-1.78.77-1.88,1.23a49.89,49.89,0,0,0-.28,5.86c-.51.65-3.09,3.69-6.78,4.24a29.43,29.43,0,0,1-4.18.33,14,14,0,0,1-2.06-.13L18.65,50.1a2.26,2.26,0,0,0,1.27-2.5Zm2.36-35.06-.17.08a3.24,3.24,0,0,0,0-.38,2.17,2.17,0,0,0-1.84-2l-.2,0a1.54,1.54,0,0,0-1.14,1c.19-1.2.87-2.09,1.68-2.09s1.75,1.28,1.75,2.79a4.12,4.12,0,0,1,0,.58Zm7.37.9a3,3,0,0,0,.13-.89,2.23,2.23,0,0,0-2-2.44,2.25,2.25,0,0,0-2,2.44c0,.09,0,.18,0,.28l-.17-.06a3.74,3.74,0,0,1-.19-1.18c0-1.64,1-3,2.34-3s2.33,1.33,2.33,3a3.5,3.5,0,0,1-.51,1.85Zm-.95,3.19c0,.08-.06.12-.5.35-.22.11-.49.26-.84.47l-.23.14a21.26,21.26,0,0,1-3.67,1.95c-.4.05-.65-.1-1.2-.48l-.4-.27a4.7,4.7,0,0,1-1.71-1.66c.33-.25,1.13-.88,1.54-1.25a4.45,4.45,0,0,1,2.1-1.3h.06a20.89,20.89,0,0,1,2.58.92l1,.39a2.43,2.43,0,0,1,1.24.74Zm7,36.42a29,29,0,0,0,.87-6.29c0-.36-.05-.76-.08-1.14a10.46,10.46,0,0,1-.06-2.09l.06,0c0,.91.2,2.73,1.66,3.37a3.67,3.67,0,0,0,1.47.28,6,6,0,0,0,3.74-1.38,6.83,6.83,0,0,0,.95-1.24,1.49,1.49,0,0,1,.06.59,4.21,4.21,0,0,0,1.81,3.79l.18.1c.44.23,1.62.85,1.64,1.14a.27.27,0,0,1-.08.1,17.11,17.11,0,0,1-2.34,1.31,20.4,20.4,0,0,0-4.71,2.89c-1.28,1.34-2.72,2.25-3.59,2.25a1,1,0,0,1-.29,0c-.95-.29-1.73-1.66-1.31-3.61ZM3.45,48a2.65,2.65,0,0,1-.09-1.15c.06-.26,1.32-.53,1.86-.65a7.24,7.24,0,0,0,2.06-.65,4.16,4.16,0,0,0,1.4-1.88,2.91,2.91,0,0,1,.78-1.17.17.17,0,0,1,.09,0c.55,0,1.71,1.16,2.38,2.2.17.26.48.79.85,1.4a44.63,44.63,0,0,0,3.35,5.14c.7.75,1.83,2.19,1.55,3.43a3.75,3.75,0,0,1-1.55,1.91,1.58,1.58,0,0,1-.34,0c-1.49,0-4.43-1.24-6-1.9l-.23-.1a19.11,19.11,0,0,0-3.72-.83A12.16,12.16,0,0,1,3,53.08c-.2-.23,0-1,.24-1.63A10.47,10.47,0,0,0,3.59,50a5.34,5.34,0,0,0-.13-2Zm0,0" style="fill:#34434c"/></g></svg>