<svg xmlns="http://www.w3.org/2000/svg" viewBox="0 0 72 64"><title>os-windows</title><path d="M14.7,2.78A34.69,34.69,0,0,1,26.86,0a24,24,0,0,1,5.43.6A37.5,37.5,0,0,1,39.87,4L33.34,26.21A23.38,23.38,0,0,0,20.59,22h0a34.51,34.51,0,0,0-12.1,2.54ZM24.91,56c1.61-5.45,5.49-18.62,6.65-22.56-.84-.51-1.7-1-2.57-1.49a21.37,21.37,0,0,0-9.7-2.59c-.42,0-.84,0-1.26,0A41.16,41.16,0,0,0,8.2,31.61c-.61.23-1.24.46-1.89.72L0,54.12a33.94,33.94,0,0,1,11.69-2.37A23.59,23.59,0,0,1,24.91,56ZM63.37,39.8a38.66,38.66,0,0,1-11.77,2,24.69,24.69,0,0,1-14.45-4.27l-6.36,22C32.68,60.59,39,64,43.88,64A36.11,36.11,0,0,0,57.3,60.93ZM72,10a33.42,33.42,0,0,1-12,2.41A24.68,24.68,0,0,1,45.7,8.08L39.23,30.35a25.47,25.47,0,0,0,13.93,4.19A30,30,0,0,0,65.5,31.7v-.16l.26-.06Zm0,0" style="fill:#34434c"/></svg>